<?xml version="1.0" encoding="utf-8"?>
<!-- Generator: Adobe Illustrator 24.3.0, SVG Export Plug-In . SVG Version: 6.00 Build 0)  -->
<svg version="1.1" id="Layer_1"
    xmlns="http://www.w3.org/2000/svg"
    xmlns:xlink="http://www.w3.org/1999/xlink" x="0px" y="0px" viewBox="0 0 646 149" style="enable-background:new 0 0 646 149;" xml:space="preserve">
    <style type="text/css">
	.dt-logo-full .st0{fill:url(#SVGID_2_);stroke:none;}
	.dt-logo-full .st1{fill:url(#SVGID_3_);stroke:none;}
	.dt-logo-full .st2{fill:url(#SVGID_4_);stroke:none;}
	.dt-logo-full .st3{fill:url(#SVGID_5_);stroke:none;}
	.dt-logo-full .st4{clip-path:url(#SVGID_7_);stroke:none;}
	.dt-logo-full .st5{fill:url(#SVGID_8_);filter:url(#dropshadow);stroke:none;}
	.dt-logo-full .st6{fill:#474749;stroke:none;}
    </style>
    <g class="dt-logo-full">
        <g>
            <g>
                <linearGradient id="SVGID_2_" gradientUnits="userSpaceOnUse" x1="128.8089" y1="728.6411" x2="13.9111" y2="843.5388" gradientTransform="matrix(1 0 0 1 0 -692)">
                    <stop offset="0.1" style="stop-color:#962B91"/>
                    <stop offset="0.3268" style="stop-color:#A0278C"/>
                    <stop offset="0.5" style="stop-color:#AB2286"/>
                    <stop offset="0.8" style="stop-color:#BE5281"/>
                </linearGradient>
                <path class="st0" d="M45.3,53.2c0.4-1.6,0.7-2.6,0.9-3.3c4.7-14.7,18.3-24.6,33.7-24.6h62.5l-23.7,88.5
					c-0.4,1.6-0.7,2.6-0.9,3.3c-4.7,14.7-18.3,24.6-33.7,24.6H21.6L45.3,53.2z M79.8,19.5c-17.7,0-33.1,11.3-38.5,28.1
					c-0.3,0.9-0.5,1.9-1,3.6l-25.8,96.3h59.1h10.5c17.7,0,33.1-11.3,38.5-28.1c0.3-0.9,0.5-1.9,1-3.6l25.8-96.3H79.8z"/>
            </g>
            <linearGradient id="SVGID_3_" gradientUnits="userSpaceOnUse" x1="25.2992" y1="808.8473" x2="17.65" y2="838.575" gradientTransform="matrix(1 0 0 1 0 -692)">
                <stop offset="0.35" style="stop-color:#7F2985"/>
                <stop offset="0.436" style="stop-color:#8F3384"/>
                <stop offset="0.6089" style="stop-color:#A94482"/>
                <stop offset="0.7643" style="stop-color:#B94E81"/>
                <stop offset="0.8862" style="stop-color:#BE5281"/>
            </linearGradient>
            <polygon class="st1" points="21.9,119.9 14.5,147.5 21.6,141.7 27.4,120 		"/>
            <linearGradient id="SVGID_4_" gradientUnits="userSpaceOnUse" x1="142.7821" y1="714.4" x2="121.4229" y2="714.4" gradientTransform="matrix(1 0 0 1 0 -692)">
                <stop offset="0.15" style="stop-color:#962B91"/>
                <stop offset="0.3706" style="stop-color:#8C2B8D"/>
                <stop offset="0.55" style="stop-color:#802B88"/>
            </linearGradient>
            <polygon class="st2" points="149.4,19.5 79.8,19.5 79.9,25.3 142.3,25.3 		"/>
            <linearGradient id="SVGID_5_" gradientUnits="userSpaceOnUse" x1="131.7388" y1="690.0358" x2="-6.3216" y2="828.0963" gradientTransform="matrix(1 0 0 1 0 -692)">
                <stop offset="0.1" style="stop-color:#962B91"/>
                <stop offset="0.3268" style="stop-color:#A0278C"/>
                <stop offset="0.5" style="stop-color:#AB2286"/>
                <stop offset="0.8" style="stop-color:#BE5281"/>
            </linearGradient>
            <path class="st3" d="M57.9,125.5h10.5l0,0c17.1,0,31.7-11.2,36.6-26.7c0.2-0.8,0.5-1.7,0.9-3.5L131,1.6H74.7H64.1l0,0
			C47,1.5,32.5,12.7,27.5,28.2c-0.2,0.8-0.5,1.7-0.9,3.5L1.4,125.5H57.9z"/>
            <g>
                <defs>
                    <path id="SVGID_6_" d="M57.9,125.5h10.5l0,0c17.1,0,31.7-11.2,36.6-26.7c0.2-0.8,0.5-1.7,0.9-3.5L131,1.6H74.7H64.1l0,0
                    C47,1.5,32.5,12.7,27.5,28.2c-0.2,0.8-0.5,1.7-0.9,3.5L1.4,125.5H57.9z"/>
                    <clipPath id="SVGID_7_">
                        <use xlink:href="#SVGID_6_" style="overflow:visible;"/>
                    </clipPath>
                    <filter xmlns="http://www.w3.org/2000/svg" id="dropshadow" height="130%" width="130%">
                        <feGaussianBlur in="SourceAlpha" stdDeviation="7"/>
                        <feOffset dx="4" dy="4" result="offsetblur"/>
                        <feComponentTransfer>
                            <feFuncA type="linear" slope="0.3"/>
                        </feComponentTransfer>
                        <feMerge>
                            <feMergeNode/>
                            <feMergeNode in="SourceGraphic"/>
                        </feMerge>
                    </filter>
                </defs>
                <g class="st4">
                    <g>
                        <linearGradient id="SVGID_8_" gradientUnits="userSpaceOnUse" x1="102.7619" y1="664.3192" x2="-3.446" y2="815.9998" gradientTransform="matrix(1 0 0 1 0 -692)">
                            <stop offset="0.2" style="stop-color:#962B91"/>
                            <stop offset="0.3701" style="stop-color:#A0278C"/>
                            <stop offset="0.5" style="stop-color:#AB2286"/>
                            <stop offset="0.8" style="stop-color:#BE5281"/>
                        </linearGradient>
                        <path class="st5" d="M106.3,1.5H74.7H64.2l0,0c-17.1,0-31.7,11.2-36.6,26.7c-0.2,0.8-0.5,1.7-0.9,3.5L7.9,101.4
                        C57.1,92.7,97.9,51.8,106.3,1.5z"/>
                    </g>
                </g>
            </g>
        </g>
        <g>
            <g>
                <path class="st6" d="M174.8,65.7c-1.7,0-2.3-0.8-2-2.4l7.3-41.7c0.3-1.6,1.1-2.4,2.6-2.4h14.1c6.6,0,11.6,1.4,14.9,4.1
				c3.3,2.7,4.9,7,4.9,12.8c0,2.1-0.2,4.2-0.5,6.3c-1.3,8.1-4.1,14-8.3,17.7s-10.2,5.5-18,5.5h-15V65.7z M192.6,31.6l-3.8,21.7h2
				c3.2,0,5.6-0.8,7.3-2.3c1.7-1.6,2.9-4.4,3.6-8.5c0.3-1.9,0.5-3.3,0.5-4.3c0-2.4-0.6-4.2-1.8-5.1c-1.2-1-3.1-1.5-5.7-1.5
				C194.7,31.6,192.6,31.6,192.6,31.6z"/>
                <path class="st6" d="M234.8,47.8l-1.1,6.1h16c1.7,0,2.4,0.8,2.1,2.4l-1.2,7.1c-0.3,1.6-1.2,2.4-2.7,2.4h-27.8
				c-1.7,0-2.3-0.8-2-2.4l7.3-41.7c0.3-1.6,1.1-2.4,2.6-2.4h27.4c1.7,0,2.4,0.8,2.1,2.4l-1.2,7.1c-0.3,1.6-1.2,2.4-2.7,2.4h-15.8
				l-1,5.4h14.6c1.6,0,2.3,0.8,2,2.4l-1.2,6.6c-0.3,1.5-1.1,2.3-2.6,2.3L234.8,47.8L234.8,47.8z"/>
                <path class="st6" d="M269.4,65.7c-1.5,0-2.3-0.7-2.6-2.1L261,22.1c-0.1-0.9,0-1.6,0.4-2.1s0.9-0.8,1.7-0.8h9.9
				c1.7,0,2.6,0.7,2.7,2.2l1.4,19l0.3,10.5h0.3l4-10.5l8.2-19c0.5-1.4,1.6-2.2,3.1-2.2h10.3c0.8,0,1.3,0.3,1.6,0.8
				c0.3,0.5,0.2,1.2-0.2,2l-20.5,41.5c-0.4,0.7-0.8,1.3-1.2,1.6c-0.4,0.3-1,0.5-1.8,0.5L269.4,65.7L269.4,65.7z"/>
                <path class="st6" d="M309.4,21.7c0.3-1.6,1.1-2.4,2.6-2.4h9.6c1.7,0,2.4,0.8,2.1,2.4l-7.3,41.7c-0.3,1.6-1.2,2.4-2.7,2.4h-9.6
				c-1.7,0-2.3-0.8-2-2.4L309.4,21.7z"/>
                <path class="st6" d="M355.1,52.9c1-0.3,1.7-0.4,2.1-0.3c0.5,0.2,0.8,0.6,1,1.3l1.7,5.9c0.2,0.7,0.2,1.3-0.1,1.7
				c-0.3,0.5-0.8,0.9-1.6,1.4c-4,2.4-8.5,3.5-13.6,3.5c-6,0-10.7-1.5-14.2-4.5s-5.2-7.4-5.2-13.3c0-1.9,0.2-4,0.6-6.2
				c2.8-16,11.4-24,25.6-24c2.9,0,5.5,0.3,7.9,1s4.3,1.5,5.6,2.5c0.7,0.5,1,0.9,1.1,1.3s-0.1,1-0.5,1.8l-3.7,5.8
				c-0.5,0.8-1,1.3-1.5,1.4s-1.2,0-2-0.4c-1.7-0.8-3.8-1.2-6.1-1.2c-3.6,0-6.3,0.9-8.1,2.6c-1.8,1.7-3.1,4.8-3.8,9
				c-0.3,1.9-0.5,3.3-0.5,4.3c0,2.7,0.7,4.6,2.1,5.7c1.4,1.1,3.5,1.7,6.5,1.7C350.6,54.2,352.8,53.7,355.1,52.9z"/>
                <path class="st6" d="M381.7,47.8l-1.1,6.1h16c1.7,0,2.4,0.8,2.1,2.4l-1.2,7.1c-0.3,1.6-1.2,2.4-2.7,2.4H367c-1.7,0-2.3-0.8-2-2.4
				l7.3-41.7c0.3-1.6,1.1-2.4,2.6-2.4h27.4c1.7,0,2.4,0.8,2.1,2.4l-1.2,7.1c-0.3,1.6-1.2,2.4-2.7,2.4h-15.8l-1,5.4h14.6
				c1.6,0,2.3,0.8,2,2.4l-1.2,6.6c-0.3,1.5-1.1,2.3-2.6,2.3L381.7,47.8L381.7,47.8z"/>
            </g>
            <g>
                <path class="st6" d="M164.4,81.3c0.3-1.6,1.1-2.4,2.6-2.4h31c1.7,0,2.4,0.8,2.1,2.4l-1.4,7.9c-0.3,1.6-1.2,2.4-2.8,2.4h-8.5
				l-5.5,31.4c-0.3,1.6-1.2,2.4-2.7,2.4h-9.6c-1.7,0-2.3-0.8-2-2.4l5.5-31.4H165c-1.6,0-2.3-0.8-2-2.4L164.4,81.3z"/>
                <path class="st6" d="M214.4,107.5l-1.1,6.1h16c1.7,0,2.4,0.8,2.1,2.4l-1.2,7.1c-0.3,1.6-1.2,2.4-2.7,2.4h-27.8
				c-1.7,0-2.3-0.8-2-2.4l7.3-41.7c0.3-1.6,1.1-2.4,2.6-2.4H235c1.7,0,2.4,0.8,2.1,2.4l-1.2,7.1c-0.3,1.6-1.2,2.4-2.7,2.4h-15.8
				l-1,5.4H231c1.6,0,2.3,0.8,2,2.4l-1.2,6.6c-0.3,1.5-1.1,2.3-2.6,2.3L214.4,107.5L214.4,107.5z"/>
                <path class="st6" d="M267.3,112.5c1-0.3,1.7-0.4,2.1-0.3c0.5,0.2,0.8,0.6,1,1.3l1.7,5.9c0.2,0.7,0.2,1.3-0.1,1.7
				c-0.3,0.5-0.8,0.9-1.6,1.4c-4,2.4-8.5,3.5-13.6,3.5c-6,0-10.7-1.5-14.2-4.5s-5.2-7.4-5.2-13.3c0-1.9,0.2-4,0.6-6.2
				c2.8-16,11.4-24,25.6-24c2.9,0,5.5,0.3,7.9,1s4.3,1.5,5.6,2.5c0.7,0.5,1,0.9,1.1,1.3s-0.1,1-0.5,1.8l-3.7,5.8
				c-0.5,0.8-1,1.3-1.5,1.4s-1.2,0-2-0.4c-1.7-0.8-3.8-1.2-6.1-1.2c-3.6,0-6.3,0.9-8.1,2.6c-1.8,1.7-3.1,4.8-3.8,9
				c-0.3,1.9-0.5,3.3-0.5,4.3c0,2.7,0.7,4.6,2.1,5.7c1.4,1.1,3.5,1.7,6.5,1.7C262.8,113.8,265,113.4,267.3,112.5z"/>
                <path class="st6" d="M304.4,108.1h-10.5l-2.6,14.9c-0.3,1.6-1.2,2.4-2.7,2.4H279c-1.7,0-2.3-0.8-2-2.4l7.3-41.7
				c0.3-1.6,1.1-2.4,2.6-2.4h9.6c1.7,0,2.4,0.8,2.1,2.4l-2.5,14.2h10.5l2.5-14.2c0.3-1.6,1.1-2.4,2.6-2.4h9.6c1.7,0,2.4,0.8,2.1,2.4
				l-7.3,41.7c-0.3,1.6-1.2,2.4-2.7,2.4h-9.6c-1.7,0-2.3-0.8-2-2.4L304.4,108.1z"/>
                <path class="st6" d="M362.3,123c-0.3,1.6-1.2,2.4-2.7,2.4h-9.1c-1.4,0-2.2-0.5-2.7-1.4l-7.8-21l-3.5,20c-0.3,1.6-1.2,2.4-2.7,2.4
				h-9c-1.7,0-2.3-0.8-2-2.4l7.3-41.7c0.3-1.6,1.1-2.4,2.6-2.4h9.1c1.4,0,2.3,0.5,2.7,1.4l7.9,21l3.5-20c0.3-1.6,1.1-2.4,2.6-2.4h9
				c1.7,0,2.4,0.8,2.1,2.4L362.3,123z"/>
                <path class="st6" d="M409.9,82.5c3.3,2.9,4.9,7.2,4.9,13.1c0,2.1-0.2,4.4-0.7,6.7c-2.8,15.9-11.2,23.8-25,23.8
				c-5.8,0-10.3-1.4-13.5-4.3c-3.3-2.9-4.9-7.2-4.9-13.1c0-2.2,0.2-4.4,0.7-6.7c2.8-15.9,11.1-23.8,24.9-23.8
				C402.1,78.2,406.7,79.6,409.9,82.5z M396.4,111.2c1.5-1.8,2.6-4.8,3.3-9c0.3-2.2,0.5-3.9,0.5-5.2c0-4.4-1.8-6.6-5.3-6.6
				c-2.3,0-4.2,0.9-5.7,2.8c-1.5,1.8-2.6,4.8-3.3,9c-0.3,2.2-0.5,3.9-0.5,5.2c0,4.4,1.8,6.6,5.3,6.6
				C393.1,114,394.9,113.1,396.4,111.2z"/>
                <path class="st6" d="M432.1,112.8h14.3c1.7,0,2.4,0.8,2.1,2.4l-1.4,7.9c-0.3,1.6-1.2,2.4-2.7,2.4h-26.3c-1.7,0-2.3-0.8-2-2.4
				l7.3-41.7c0.3-1.6,1.1-2.4,2.6-2.4h9.6c1.7,0,2.4,0.8,2.1,2.4L432.1,112.8z"/>
                <path class="st6" d="M493.5,82.5c3.3,2.9,4.9,7.2,4.9,13.1c0,2.1-0.2,4.4-0.7,6.7c-2.8,15.9-11.2,23.8-25,23.8
				c-5.8,0-10.3-1.4-13.5-4.3c-3.3-2.9-4.9-7.2-4.9-13.1c0-2.2,0.2-4.4,0.7-6.7c2.8-15.9,11.1-23.8,24.9-23.8
				C485.7,78.2,490.2,79.6,493.5,82.5z M480,111.2c1.5-1.8,2.6-4.8,3.3-9c0.3-2.2,0.5-3.9,0.5-5.2c0-4.4-1.8-6.6-5.3-6.6
				c-2.3,0-4.2,0.9-5.7,2.8c-1.5,1.8-2.6,4.8-3.3,9c-0.3,2.2-0.5,3.9-0.5,5.2c0,4.4,1.8,6.6,5.3,6.6
				C476.6,114,478.5,113.1,480,111.2z"/>
                <path class="st6" d="M541.3,96.7c1.6,0,2.2,0.8,2,2.4l-3.7,21.2c-0.2,1-0.9,1.8-2,2.5c-4.2,2.3-9.6,3.4-16.2,3.4
				c-6.2,0-11.1-1.4-14.6-4.3s-5.3-7.3-5.3-13.4c0-1.7,0.2-3.9,0.7-6.6c1.4-8.3,4.5-14.4,9.1-18.1c4.6-3.7,10.7-5.6,18.2-5.6
				c6.4,0,11.2,1.2,14.4,3.6c0.6,0.5,1,0.9,1,1.3c0.1,0.4-0.1,1-0.5,1.8l-3.4,5.9c-0.7,1.3-1.9,1.7-3.5,1c-2.4-0.9-4.9-1.4-7.4-1.4
				c-4.2,0-7.3,0.9-9.3,2.6s-3.4,4.7-4.2,9.1c-0.3,1.6-0.4,2.9-0.4,4.1c0,2.7,0.7,4.6,2.1,5.8c1.4,1.2,3.6,1.7,6.6,1.7
				c1.4,0,2.5-0.1,3.4-0.4l1.1-6.4h-3.6c-1.6,0-2.2-0.8-2-2.3l1-5.6c0.3-1.6,1.1-2.4,2.6-2.4L541.3,96.7L541.3,96.7z"/>
                <path class="st6" d="M552.9,81.3c0.3-1.6,1.1-2.4,2.6-2.4h9.6c1.7,0,2.4,0.8,2.1,2.4l-7.3,41.7c-0.3,1.6-1.2,2.4-2.7,2.4h-9.6
				c-1.7,0-2.3-0.8-2-2.4L552.9,81.3z"/>
                <path class="st6" d="M583.6,107.5l-1.1,6.1h16c1.7,0,2.4,0.8,2.1,2.4l-1.2,7.1c-0.3,1.6-1.2,2.4-2.7,2.4h-27.8
				c-1.7,0-2.3-0.8-2-2.4l7.3-41.7c0.3-1.6,1.1-2.4,2.6-2.4h27.4c1.7,0,2.4,0.8,2.1,2.4l-1.2,7.1c-0.3,1.6-1.2,2.4-2.7,2.4h-15.8
				l-1,5.4h14.6c1.6,0,2.3,0.8,2,2.4l-1.2,6.6c-0.3,1.5-1.1,2.3-2.6,2.3L583.6,107.5L583.6,107.5z"/>
                <path class="st6" d="M635.7,121.8c-3.9,2.9-8.8,4.3-14.7,4.3c-6.9,0-12.2-1.1-16-3.3c-1.2-0.7-1.4-1.6-0.7-2.9l3.4-6.1
				c0.8-1.5,1.9-1.9,3.2-1.4c3,1.3,6,2,9,2c4.8,0,7.1-1,7.1-3c0-1.2-2-2.5-5.9-3.9c-1.7-0.6-3.2-1.2-4.4-1.9s-2.5-1.5-3.7-2.5
				s-2.1-2.2-2.8-3.7s-1-3.1-1-5c0-5.5,1.8-9.5,5.5-12.1s8.5-3.9,14.6-3.9c3,0,5.7,0.3,8.3,0.9s4.5,1.3,5.8,2.1
				c1.2,0.7,1.4,1.7,0.7,2.9L641,90c-0.8,1.4-1.9,1.9-3.3,1.4c-2.6-0.9-5.4-1.4-8.4-1.4c-3.7,0-5.6,0.9-5.6,2.6
				c0,0.7,0.4,1.4,1.3,2.1c0.9,0.6,2.4,1.3,4.4,2.1c1.9,0.7,3.5,1.4,4.6,2c1.2,0.6,2.4,1.4,3.7,2.4s2.2,2.1,2.8,3.5s0.9,2.9,0.9,4.7
				C641.5,114.7,639.6,118.9,635.7,121.8z"/>
            </g>
        </g>
    </g>
</svg>
