<svg height="206.224964" viewBox="0 0 46.114501 19.637276" width="484.907347" xmlns="http://www.w3.org/2000/svg" xmlns:xlink="http://www.w3.org/1999/xlink"><clipPath id="a"><path d="m643.10156 459h36.89844v25h-36.89844zm0 0"/></clipPath><clipPath id="b"><path d="m719 451.05078h55v54.94922h-55zm0 0"/></clipPath><clipPath id="c"><path d="m720 451.05078h52v53.94922h-52zm0 0"/></clipPath><clipPath id="d"><path d="m721 451.05078h50v53.94922h-50zm0 0"/></clipPath><symbol id="e" overflow="visible"/><symbol id="f" overflow="visible"/><g transform="translate(-226.29247 22.148209)"><use fill="#00918a" height="100%" transform="matrix(.35277779 0 0 .35277779 6.61502 113.08877)" width="100%" x="483.88281" xlink:href="#e" y="754.58142"/><path d="m243.76977-8.7288739c-.10748.017921-.21497.017921-.30454.017921-.41341.017921-.82682.035832-1.24161.053746-.5209.017921-1.0418.053742-1.58061.071656-.25218.017921-.52228.017921-.77308.035832-.57602.017921-1.13413.035828-1.70877.071656-.37758.017921-.77308.035828-1.16858.053742-.5581.017921-1.09692.035832-1.63573.053746-.23427.017921-.46853.053742-.70142.053742-.25218 0-.73725-.053742-.97152-.1970581-.0896-.07166-.14331-.2328898.12541-.3582917.12677-.071656.25218-.08957.37895-.1074844 1.45521-.035832 2.87597-.053746 4.31464-.053746.791 0 1.58199.017921 2.37299.017921.77307.017921 1.54615.035832 2.31923.053746.12678 0 .25218.017921.37759.08957.0717.035832.14331.07166.19705.143316zm0 0" fill="#ae9c6e"/><g clip-path="url(#a)" transform="matrix(.3527778 0 0 .3527778 -.469596 -181.13662)"><path d="m649.16797 459.67969c.35547.10156.50781.60937.55859 1.01562.10156.76172.15235 1.57422.20313 2.33203.20703 4.31641.25781 8.6836.30859 12.9961 0 1.52343-.20703 3.04687-.71484 4.51953-.0508.15234-.15235.30469-.20313.45703-.0508.15234-.15234.25-.20312.50391 0 .0547.20312.0547.20312.0547.76563 0 1.52735.0977 2.29297.15235.91797.0976 1.83594.20312 2.75.35156.25781.0547.5625.10547.86719.15234.51172.0547.96875-.0976 1.22265-.55859.25782-.35156.35938-.75781.46094-1.16406.10156-.60938.25391-1.21875.45703-1.82813.15235-.35547.3086-.66015.46094-1.01562.10156-.15235.25391-.30469.40625-.45703.35547-.35547.81641-.30469 1.07031.15234.15235.20312.20313.50781.30469.76172.15234.66015.20703 1.37109.25781 2.08203v.60937c.0508.15235.10157.35547.30469.40625.15234.0469.30469-.10546.40625-.20312.66406-.71094 1.27734-1.42188 1.9375-2.13281.10156-.15235.25391-.25391.40625-.30469.25781-.15234.51172-.10156.71484.15234.15235.25391.20313.50782.25391.8125.0547.30469.10156.66016.10156 1.01563 0 .15234 0 .30469.0547.40625.0977.2539.25391.30078.45703.20312.20313-.0547.30469-.20312.45703-.35547.25391-.35546.51172-.76171.81641-1.0664.20312-.25391.45703-.50781.71484-.66016.15235-.10156.35547-.20312.5586-.20312.41015 0 .66406.15234.86718.50781.15235.25391.20313.55859.25391.86328v.40625c.10156.25391.20313.25391.35547.10156.0547-.0508.10156-.10156.15625-.20312.20312-.20313.40625-.40625.60937-.5586.30469-.20312.66407-.20312.96875.0508.15625.10156.25782.2539.35547.40625.15625.2539.20703.55859.3086.86328 0 .0508 0 .10156.0508.15234.0508.15234.20312.19922.35547.15234.20312-.10546.5625-.45703.5625-.51171.0508 0 0-.0469 0-.0977-.0508-.50781 0-1.01563.20312-1.52344.30469-.8125.76563-1.47265 1.47656-1.98047 1.22657-.91406 2.55079-.96484 3.875-.2539.0508 0 .10157.0508.20313.10156 0-.10156 0-.20313 0-.25391 0-2.89453 0-5.73437 0-8.57812 0-.10156 0-.15235.0508-.25391.0508-.15234.20313-.2539.35547-.20312.10156.0508.25781.10156.35937.15234.50782.40625.71094.86328.76172 1.47266v.30468c0 3.34766-.0976 6.64844-.0508 10.05079 0 .40625.0508.86328.0508 1.26953 0 .19922.0508.40625.0508.66015 0 .0977.0508.30469 0 .40235-.0508.46093-.35546.66015-.76171.8125-.20704.0508-.41016 0-.5625-.19922-.10157-.15235-.20313-.35938-.20313-.5586 0-.35937 0-.66015 0-1.01562 0-.10156 0-.15625 0-.25391-.0508.0508-.10156.0977-.15234.15235-.35938.45703-.71485.86328-1.1211 1.26953-.71484.65625-1.9375.96484-3.00781.35156-.51172-.25-.96875-.60547-1.22266-1.11719-.0508-.0469-.10156.0547-.15234.15625-.25391.25-.46094.50391-.71484.71094-.15235.0977-.30469.19922-.45703.30469-.41016.19922-.81641.0976-1.1211-.20703-.25781-.19922-.35937-.45313-.46094-.75782-.10156-.2539-.15234-.30468-.35546-.10156-.0508.10156-.10157.14844-.15235.20313-.25781.45703-.66406.75781-1.01953 1.01562-.15234.15235-.35937.19922-.51172.25391-.2539.0469-.45703 0-.60937-.25391-.0508-.15234-.10157-.30469-.10157-.45703 0-.61328-.0508-1.11719-.0508-1.72656 0-.0508.0508-.10156 0-.15235 0-.15234-.10156-.20312-.25781-.10156-.0977.0508-.20312.15235-.25391.25391-.20312.20312-.35546.45703-.45703.66015-.2539.40625-.5625.8125-.86718 1.11719-.20313.19922-.45704.40625-.71094.50391-.51172.2539-.96875.15625-1.32813-.30469-.20312-.30469-.30468-.60547-.35547-.96094 0-.15625 0-.30859 0-.40625 0-.0547 0-.10156 0-.15234 0-.20313-.15234-.25391-.30859-.15625-.20312.15625-.35547.35937-.50781.55859-.25391.40625-.5586.76563-.91797 1.11719-.20313.20703-.45703.40625-.71094.55859-.15625.10157-.30859.20704-.46094.25391-.30468.15234-.66406 0-.8164-.25391-.10156-.15234-.15235-.35156-.20313-.5039-.10156-.35938-.15234-.66016-.15234-.96485 0-.15234 0-.2539 0-.40625-.0508-.10546-.0508-.2539-.20313-.2539-.15234-.0508-.2539.0508-.30468.14844-.10547.35937-.15625.46093-.25782.71093-.0508.20703-.20312.40625-.30468.5586-.30469.45703-.76563.71093-1.32422.71093-.41016.0547-.86719-.0508-1.32422-.0508-.71484-.0469-1.58203-.10156-2.29688-.14843-1.27343-.10547-2.44531-.20704-3.71875-.45704-.30468-.10156-.5625-.0547-.86718.0977-.50782.30469-1.07032.40625-1.67969.46094-.61328.0976-1.22266.0469-1.83594-.0547-.35547-.0469-.71484-.25391-.86719-.45703-.0508-.10156-.0508-.25391 0-.35547.10157-.45703.46094-.65625.81641-.80859.50781-.15235 1.07031-.25391 1.57813-.25391.61328-.10156 1.27734-.0508 1.88671-.0508.20313 0 .30469-.10156.35547-.30859.15625-.35157.20703-.75782.25782-1.16407 0-1.0664 0-2.23437-.0508-2.84375-.0508-.76172-.0508-1.42187-.10156-2.28515 0-.76172 0-1.92969-.0547-2.83985 0-.86328-.10156-4.26562-.10156-5.58593 0-.86329 0-1.57422 0-2.38672 0-1.0625.0508-2.08203.3086-3.09375.0508-.25391.10156-.50782.20312-.76172.10156-.25391.30469-.40625.60938-.45703.10546-.0508.15625-.0508.25781 0zm28.48828 18.78125c0-.15235-.0508-.25391-.10156-.25391-.35938-.30469-.71485-.35547-1.1211-.30469-.71484.0508-1.22265.25391-1.78515.71094-.66016.50781-.96875 1.21875-.86719 2.03125.0547.50781.46094 1.01172 1.07031 1.01172.3086 0 .61328-.0469.86719-.19922.71484-.40625 1.07031-.71094 1.53125-1.37109.0508-.10157.10156-.20313.15234-.25391.15235-.30469.25391-.45703.25391-.76172 0-.20312 0-.45703 0-.60937zm0 0" fill="#ae9c6e"/></g><path d="m249.27228-5.7385282c-.27009-.143316-.44924-.3045495-.5209-.5911815-.0179-.071656-.0179-.143316-.0179-.2149722 0-.8061537 0-1.6288421 0-2.4349923 0-.5911815 0-1.1644458 0-1.7556238-.0193-.124022 0-.249424-.0193-.374826-.0165-.143316-.0717-.268718-.17914-.376202-.0358-.03583-.0717-.03583-.10749-.01792-.21635.08819-.44924.08819-.66559.01792-.0538-.01792-.10749-.05375-.16261-.08957-.0165.01792 0 .05374 0 .07166v.48231c0 .08957-.0358.16261-.1254.197062-.1254.07304-.26872.07304-.3955.07304-.0358 0-.0537-.03721-.0537-.07304 0-.267342 0-.500228 0-.768946 0-.01792 0-.05374 0-.08957-.0179.01792-.0537.05375-.0537.07166-.14469.214972-.30592.376202-.50298.536056-.23427.180524-.48645.304546-.79099.340374-.16261.01792-.32384 0-.48645-.03583-.32246-.08819-.57464-.39412-.61047-.7152-.0179-.250804.0358-.483694.10748-.698666.10749-.32246.32384-.55535.59256-.734494.16261-.107488.36105-.143316.55811-.143316.1254.01792.23426.05374.34175.125402.10749.05374.16123.16123.19844.268714.0524.161234.0524.322464.0358.483694-.0193.08957-.0551.197058-.0909.214972-.0358.07166-.10749.07166-.17915.03583-.10749-.07166-.16261-.179148-.19844-.30455-.0179-.07166.0179-.125398.0909-.16123.0165-.01792.0358-.01792.0358-.08957 0-.07166 0-.125402-.0193-.197062-.0165-.125402-.10748-.16123-.23289-.107484-.0537.01792-.1254.08957-.1626.125398-.25081.286632-.35829.573264-.39412.94947 0 .125402 0 .23289.0165.340374.0551.197062.18053.30317.37759.322464.14469 0 .27009-.03583.39549-.08957.18053-.08957.32522-.216352.45062-.376206.21635-.2508.37758-.537432.50299-.859896 0-.03583 0-.05374 0-.08957 0-.824068 0-1.630222 0-2.434996 0-.197058 0-.394116 0-.609092 0-.07166 0-.143316.0179-.214972.0537-.179148.21635-.304546.41341-.322464.1254-.03583.16123-.01792.16123.143316v3.062002.08957c.0372-.03583.0551-.05375.073-.07166.19705-.143316.39549-.2508.62838-.268718.16261-.03583.37758 0 .52228.08957.30592.197058.37758.55535.30592.770322-.0551.197062-.12678.322464-.32384.483694-.0179.03583-.0909.08957-.0909.08957s.0193.01792.0193.01792c.28663.107485.44924.340374.53882.625627.0358.143316.0537.286632.0537.429948.0179.6807516.0179 1.3794175.0358 2.0601693 0 .3762022.0179.9852978.0179 1.1272344v1.6123039c0 .089574-.0537.089574-.10749.053746zm-1.45658-6.1240038c.0717-.01792.14469-.01792.21635-.01792.0537 0 .10748.01792.16123 0 .0896 0 .16261-.01792.23427-.07166.12539-.107484.17914-.232886.16123-.394116-.0358-.16123-.12541-.250804-.28802-.286632-.10748-.01792-.19705 0-.30454.03583-.1447.05374-.25218.16123-.37758.250804-.0193.01792-.0193.05374-.0193.07166v.268718.268718c.073-.07166.12678-.107488.21635-.125402zm0 0" fill="#ae9c6e"/><path d="m242.35039-11.880446c-.23426 0-.48507 0-.73724 0 .0179.05374.0358.107488.0358.16123.0538.214976.0358.429948-.0717.643544-.1447.286632-.3955.431328-.68351.48369-.16123.01792-.5209.05375-.88057-.303166-.18052-.197062-.18052-.358292-.18052-.609092 0-.609096.0179-1.074872.0179-1.683964 0-.894348 0-1.73633 0-2.632054 0-.250804.1254-.23289.19844-.197058.23288.125402.35966.304546.41341.55535.0179.143316.0179.268714.0179.41203.0358 1.270554.0179 2.094618.0179 3.151576 0 .197058-.0179.376202.0358.55535.0896.2508.34175.32108.48507.267338.23427-.124022.32384-.340374.25218-.607716-.0179-.05374-.0179-.05374-.0358-.107484-.0179-.05375-.0537-.07166-.10749-.107488-.14469-.08957-.21635-.179144-.21635-.358292 0-.01792.0179-.08957.0179-.107484.0717-.161234.23427-.214976.32384-.197062.0896 0 .14332.03583.19706.107488.0358.05374.073.125402.073.197058.0179.07166.0179.07166.10748.07166h.61185.17915c.0358 0 .0717 0 .0896-.05375.073-.125398.16261-.268714.28801-.376202.18052-.197062.41341-.340378.68351-.39412.1254-.01792.23289-.01792.34175 0 .21498.05374.35967.16123.44924.340374.0717.125402.0896.250804.10749.39412 0 .05375 0 .125402-.0179.179144-.0537.125402-.17915.214976-.32384.214976-.16123 0-.32384 0-.46715 0-.17915 0-.35967 0-.55673 0-.0551 0-.0551 0-.0551.05374-.0179.197062 0 .376206.0909.537436.10748.213596.34175.304546.57464.23289.16261-.05375.28801-.16261.3955-.305926.0179-.03447.0896-.106108.14469-.141936.0717-.03583.10749 0 .10749.07166 0 .01655-.0179.05374-.0179.08957-.18053.374826-.44924.625626-.88195.698666-.17914.05236-.37758.03583-.57464-.05375-.23427-.09095-.37758-.286632-.43133-.520898-.0537-.197058-.0537-.39274-.0179-.589802 0-.01792 0-.03583.0179-.05374 0 0-.0179 0-.0179-.01792zm.86266-.304546h.18052c.10749 0 .17915 0 .30455-.01792.14469-.01792.18052-.03583.23426-.214976.0358-.143316-.0179-.250804-.14331-.340374-.10887-.07166-.23427-.03583-.34176.01792-.10886.07166-.19843.16123-.27009.250804-.0537.08957-.10749.197058-.1254.304546zm0 0" fill="#ae9c6e"/><g clip-path="url(#b)" transform="matrix(.3527778 0 0 .3527778 -.469596 -181.13662)"><path d="m746.46094 451.35547c.96875 1.11328 1.22265 2.58984 1.375 4.00781.15234.76172.45703 1.42188.86718 2.03125.25391.8125.40625 1.72656 1.27344 2.23438.25391.2539.45703.71093.86719.76171.71094.20313.71094.20313.71094.20313.41015.0508.71484.0508 1.07031.0508.0508.0508.0508.0508.0508.0508.91797-.15234 1.83594 0 2.60156-.45703.35547-.10156.81641 0 1.1211-.25391.50781 0 1.22265.25391 1.52734-.30468.25781-.20313.5625-.30469.86719-.30469.51172-.15234.91797-.50781 1.48047-.55859.86328-.40625 1.78125-.76172 2.64843-1.16797.10157-.0508.20313-.10157.30469-.10157.5625-.15234 1.01953-.55859 1.47656-.91406.71485-.60937 1.78516-.40625 2.55079-.96484.30468-.20313.60937-.0508.91796-.10156.60938-.0508.96875-.65625 1.62891-.5586.91797 0 1.98828-.40625 2.70313.30469.30468.25391.50781.60937.60937.96484.15234.8125-.60937 1.3711-.76172 2.13282-.41015.8125-1.53125.8125-1.73437 1.72656-.41016.45703-.96875.60937-1.32422 1.0664-.86719.8125-1.98828 1.11329-2.95703 1.77735-.45703.45312-.96875.8125-1.52735 1.01172-.30859.30468-.51172.66015-.8164.91797-.76563.5039-1.78516.65625-2.39453 1.51953-.0547 0-.0547 0-.0547 0-.40625.60937-1.1211.60937-1.47656 1.21875-.50782.2539-.91797.60937-1.17188 1.0664-.35547.50782-.96875.45703-1.17187 1.06641-.20313.30469-.81641.40625-.66407.86328.10157.30469-.2539.50781-.40625.76172.0508.15234.10157.30469.0508.45703.0508.86328.0508.86328.0508.86328 0 .0469-.0508.0469-.0508.10156.25391.19922.61329.19922.76563.50391.10156.76563.96875.61328 1.22266 1.21875.35546.50781.40625 1.11719.8164 1.52344.10156.45703.25391.86328.66016 1.11719.35937.50781.66406.96484.91797 1.47265.2539.25391.51172.30469.76562.50781.76563.8125 1.07031 1.77735 1.88281 2.53907.3086.40625.81641.75781.96875 1.26953.25391.5039.61329.91015.71485 1.46875.30469.15234.50781.45703.5625.8125.66015.35547.60937 1.21875 1.12109 1.77734.40625.35547.66016.8125.8125 1.32031.61328.60938.86719 1.42188.81641 2.28516 0 .76172.71484 1.21875.66406 1.97656.15234.35547.15234.86328 0 1.21875-.35547.25391-.25391.71094-.41016 1.01563-.30468.60937-.8125 1.26953-1.47656 1.37109-.55859 0-1.12109.10156-1.58203.30469-.66016 0-1.26953-.25391-1.78125-.66016-.45703-.20312-.71484-.76172-1.17187-.86328-.25391-.30469-.35547-.66015-.71485-.91406-.20312-.40625-.66015-.60938-.91797-1.01563-.71093-.75781-1.0664-1.67187-1.93359-2.28125-.66406-.60937-.96875-1.37109-1.58203-1.98046-.5625-.5586-1.22266-1.16797-1.47656-1.87891-.66407-.71094-1.53125-1.11719-2.08985-1.92969-.15234-.20312-.35547-.30469-.61328-.40625-.35547-.66015-1.07031-1.0625-1.62891-1.62109-.15234-.0547-.30468-.10547-.46093-.15235-.45703-.66015-1.1211-.66015-1.62891-1.11718-.20312-.0547-.40625-.20703-.5625-.30469-.40625-.10156-.96875-.10156-1.12109-.50781-.15235-.10157-.50782.0508-.5586-.20313-.15234 0-.30859.10156-.46093.20313-.60938-.35547-.81641.60547-1.42579.55859-.2539.10156-.51171.15234-.8164.19922-.35547.20703-.71094.51172-1.17188.61328-.2539.25-.35547.55859-.45703.86328-.51172.85938-1.12109 1.82422-1.98828 2.4336-.50781.76171-1.42969 1.21875-1.63281 2.08203-.25391.50781-.66016.96484-1.06641 1.42187-.20703.25391-.51172.30469-.76562.45703-.51172 1.21875-1.6836 2.08203-2.5 3.14453-.35547.30469-.35547.30469-.35547.30469 0 .25391 0 .50781-.20313.66016-.86718 1.01562-1.88672 1.92969-2.49609 3.04687-.30859.20313-.76563.35547-.61328.8125-.10156.5586-.66406.96485-1.1211 1.3711-.10156.50781-.50781.86328-.8164 1.26953-.45703.60937-.91797 1.42187-1.67969 1.77734-.20312.45313-.91797.45313-.86719 1.01172-.30468.60938-.76562 1.21875-1.375 1.57422-.51172.45703-.96875.8125-1.58203 1.01562-.30469-.15234-.45703.25391-.71484.30469-.66016-.35547-1.17188.5586-1.73047-.10156-.25391-.0508-.5625-.15234-.81641-.30469-.71484-.86328-.71484-2.18359-.30468-3.14844.0508-.5039.40625-.96093.45703-1.46875.10156-.35546.41015-.55859.61328-.86328.15234-.30468.20312-.60937.40625-.86328.15234-.40625.30469-.86328.5625-1.21875.20312-.40625.15234-.91406.45703-1.32031.61328-.71094.91797-1.52344 1.22266-2.33594.30859-.35547.66406-.71094.86718-1.11719.41016-1.11328 1.57813-1.97656 2.24219-2.99218.51172-.50782.81641-1.11719 1.07031-1.72657.45703-.86328 1.42578-1.37109 1.6836-2.28515.60937-.8125 1.32422-1.625 1.73047-2.53516.20312-.35937.51171-.66406.5625-1.11719.0508-.91796.8164-1.52343.96875-2.38671.40625-1.01563.55859-2.08204 1.32421-2.84375.0508-.60938.61329-1.01563.5586-1.67579-.15235-.2539-.45703-.35546-.66016-.55859-.40625-.40625-.91797-.76172-1.48047-.71094-.20312-.0508-.40625-.10156-.55859-.10156-.81641-.30469-1.73438-.50781-2.54688-.8125-.41015-.25-.96875-.50391-1.27734-1.01172-.50781-.41015-.50781-.41015-.50781-.41015-.96875.10546-1.63281-.65625-2.54688-.60547-1.07422-.25391-2.14062-.50782-3.10937-.91407-.5625-.60937-1.48047-.45703-1.9375-1.21875-.35547-.2539-.86719-.35546-1.07031-.86328-.10157-.15234-.0508-.40625-.0508-.60937.20313-.35547.5586-.66016.91797-.96485.30469-.2539.71485-.20312 1.17188-.2539 1.17187-.10156 2.54687-.20313 3.66797-.60938.5625-.0508 1.17187-.15234 1.73437 0 .60938.10157 1.375-.10156 2.03906-.10156.45704 0 .91407-.0508 1.375.0508.61329-.0508 1.17188-.10156 1.78516-.20312.71094.15234 1.47656.0508 2.08984-.30469.66016-.25391 1.42579-.25391 2.03516-.50781.35938-.50782.81641-.76172 1.37891-.8125.20312-.40625.60937-.50782.96875-.75782.20312-.35937.66015-.66015.91406-.96484.0508-.35937.10547-.76172.25781-1.06641.81641-.60937.45703-1.67578.96875-2.38671.15235-.60938.30469-1.21875.71094-1.77735.15234-.20312 0-.55859.0508-.86328.20703-.45703.71484-.8125.91797-1.26562.0508-.3086-.10156-.61329 0-.86329.20312-.91406.51172-1.77734 1.32422-2.38671.41015-.30469.8164-.8125 1.48047-.5586.30468.0508.66015.0508.96875.25391zm0 0" fill="#e65902"/></g><g clip-path="url(#c)" transform="matrix(.3527778 0 0 .3527778 -.469596 -181.13662)"><path d="m723.73047 504.09375c-.0547-.10156.20312-.10156.0508-.20313-.25391-.0508-.66406.60938-.71484 0-.15235-.0508-.25391 0-.40625-.0508-.10157.0508-.10157.20313-.25782.20313-.35547.15234-.40625-.40625-.66015-.45703.0508.10156.0508.20312 0 .30468 0 .0508-.0508.0508-.15235.0508-.0508-.15235-.2539-.20313-.15234-.35547.10156-.0508.0469-.20313.15234-.25391-.0508-.0508-.20703 0-.2539-.15234 0-.35547.14843-.66016-.10547-.91407.0508-.15234 0-.30078.10547-.40234.2539 0 0-.25391.20312-.30469-.0547-.2539-.15625-.45703-.10156-.71093.15234-.10157.25391-.30469.45703-.20313.20313-.10156 0-.20312-.0508-.30469.35547-.20312.0508-.55859.20312-.91406.10157-.15234.10157-.40625.35547-.45703.10157 0 .15625.0508.20313.0508.30859-.15234.10547-.45703.35937-.60937-.10156-.15235-.0508-.35547-.0508-.50782.0508-.10156.15235-.20312.25391-.20312.10156.15234.2539.10156.30469.20312.10156-.10156.25781 0 .25781-.10156.15234-.10156.30469-.10156.40625-.25391.0508-.2539-.35547-.2539-.25391-.55859.0508-.10156.10156-.20312.25391-.25391.15234 0 .15234.25391.30469.15235.20312 0-.0508-.15235 0-.25391-.20313-.10156-.35547-.2539-.45704-.45703.10157-.15234.10157-.35547.20313-.50781-.10156-.10156 0-.20313.0508-.30469.25391-.20312.55859-.10156.76563-.40625.0508 0 .10156.0508.15234.10156 0 .15235-.15234.30469 0 .45703 0 .0508-.0508.10157 0 .10157.10156 0 .10156-.15235.20312-.10157-.10156-.2539-.10156-.45703-.0508-.71093 0-.0508-.0508-.15235-.10156-.0508-.0508.0508-.15234.0508-.20312.0508-.15235-.0508-.15235-.15235-.15235-.25391.25391-.10156.30469-.50781.66016-.35547.10156.10156.10156.10156.10156.10156.0508-.10156 0-.20312 0-.2539-.15234-.0508 0-.35547-.25391-.25391-.10156-.10156 0-.30469-.0508-.45703.15235-.10156.15235-.25391.35547-.30469.25781-.20312.25781-.55859.25781-.80859.10157-.15234.25391-.35547.45704-.35547.0508.0508.10156.0508.15234.0508.25391-.15234-.15234-.2539.0508-.45703.10156-.10156.30469-.40625.51172-.35547.10156.15235.25391.25391.15234.40625-.0508.20313-.20312 0-.25781.15235.0547.10156.15625.20312.25781.15234.10157-.10156.15235-.20313.15235-.35547-.10157-.20312-.15235-.45703-.20313-.71094.10156-.20312.35547-.30468.35547-.55859.20313-.15234.46094-.25391.5625-.45703.10156-.15235.35547.0508.35547-.20313-.10156-.10156-.0508-.2539-.15234-.30468 0-.30469.10156-.60938.35546-.8125.15235 0 .30469.0508.40625.20312 0 .0508-.0469.10156 0 .10156.15625 0 .10157-.15234.15625-.20312-.0547-.35547.0508-.76172.25391-1.06641.15234-.2539.51172-.10156.51172-.40625-.0547-.10156 0-.20312.0469-.2539.0547-.0508.15625-.0508.20704-.0508-.10547.25391.20312.50782-.10547.66016-.20313-.10156-.20313-.10156-.20313-.10156-.0508.0508-.0508.15234-.0508.20312.15234.20313.30859-.10156.51172-.0508.10156-.0508.20312 0 .35547-.10156 0-.10156.15234-.15234.0508-.25391-.0508.0508-.10156.10157-.20313.0508-.15234-.10156-.0508-.2539-.15234-.35546.0508-.10157.10156-.15235.20313-.20313.15234 0 .2539-.20312.35546-.30469-.0508-.0508-.20312 0-.2539-.10156 0-.10156.0508-.15234.10156-.20312-.10156-.15235.10156-.10157.10156-.15235.10157-.10156.20313-.2539.35938-.20312.0508.0508.15234.10156.10156.20312-.0508.20313-.35937.15235-.30859.35547.10547-.10156.25781 0 .30859-.15234 0-.10157 0-.20313.10156-.20313.0508-.20312-.10156-.50781.0508-.71094.20313-.15234.40625-.35546.5586-.50781.10156-.20312.30859 0 .41015-.2539 0-.0508 0-.0508 0-.0508-.10156-.0508-.2539.0508-.35546 0-.15625-.2539.2539-.40625.15234-.71093.10156-.0469.25391-.40625.45703-.15235.40625-.2539.30469-.75781.66016-1.01172.35937-.35937.35937-.35937.35937-.35937.0508-.0977-.10156-.0977-.15234-.14844-.10156.0508-.25391.10156-.35938.0508-.10156-.15625-.15234-.30859-.10156-.50781.10156-.0508.25391-.0508.25391-.20703-.0469-.25.15625-.45313.25781-.65625.10156.0508.15234-.0508.20312-.10156.15235.0508.25391.15234.30469.30468-.0508.20313-.30469.25391-.40625.45313-.0508.10547 0 .15625.0508.20703.20313-.10156.15235-.30469.35547-.40625.10156-.60937.10156-.60937.10156-.60937-.0508-.10157-.10156 0-.20312 0-.10156-.15235-.35547-.20313-.30469-.45704.0508-.10156.0508-.2539.15235-.2539.0508 0 .10156 0 .15234.0508-.10156.0508-.10156.15234 0 .20312.0508.0508.0508.0508.0508.0508.0508-.15235 0-.35547.15234-.45704.10157-.0508.20704-.20312.35938-.20312.20312-.15234.35547-.30469.35547-.55859.2539-.20313-.0508-.45704-.15235-.66016.15235-.20313 0-.55859.25391-.76172 0-.15234.0508-.30469.10156-.45703.10157-.0508.25782-.20313.35938-.0508.15234.30469-.0547.60937-.15625.91406-.0508.10156.10156.15234.15625.25391.10156 0 .0469-.15235.10156-.20313.10156-.0508.15234-.10156.25391-.20312 0-.15235-.0508-.25391-.0508-.40625-.25782-.10157 0-.35547-.20313-.45703.10156-.30469-.20312-.50782-.15625-.86329-.10156-.10156-.10156-.30468-.0469-.45703.0469-.35547.60937-.10156.55859-.50781 0-.20312-.20313-.20312-.30469-.35547-.0508-.0976-.20703-.2539-.20703-.40625.0547-.0508.20703-.0508.15625-.0976 0-.15235-.10156-.20704-.20312-.30469-.25782-.10156-.51172.19922-.81641 0-.0508-.0547-.20313 0-.25781-.15625-.10157-.20313.25781-.35547-.0469-.45703-.15625-.0977-.35937.15234-.46094-.0469-.10156-.10547-.20312.0469-.30468.10156-.15625-.10156-.35938.0469-.51172 0-.35547-.20703-.91406-.0547-1.17188-.50781-.20312 0-.35547-.15234-.55859-.15234-.20703-.20703.15234-.40625.0508-.60938-.15625-.2539-.41016.0977-.5625-.10156-.10156-.0508-.10156-.15234-.20312-.25391-.25391.0469-.51172.20313-.76563.0469-.10156-.15234-.20312-.30078-.20312-.45313-.20313-.45703-.71485.20313-.91797-.30468-.30469-.10157-.45703.2539-.76172.20312-.25781-.10156-.41016-.30469-.66406-.20312-.30469.10156-.50782-.20313-.81641-.15235-.25391-.0508-.15234-.60937-.55859-.40625-.25391.20313-.61329.20313-.86719.15235-.20313-.20313-.25391-.66016-.61328-.50782-.35547.25391-.86328.30469-1.27344.15235-.15234-.25391-.66016-.15235-.61328-.5586 0-.15234-.20313-.20312-.35547-.15234-.0508.10156-.15234.10156-.30469.10156-.10156-.20312-.35547-.2539-.50781-.35547-.20703.10157-.35938-.10156-.46094-.20312 0-.20313-.15234-.35547-.35547-.45703 0-.15235 0-.30469.10157-.40625.2539-.25391.30468.20312.55859.10156 0 .35547.51172.30469.35937.71094.15235.10156.25391.40625.50782.2539.0508-.0508.0508-.0508.0508-.0508-.40625-.10156-.20313-.55859-.50781-.71093-.41016 0-.35547-.50782-.71485-.50782-.0508-.10156-.10156-.15234-.15234-.15234-.15235.10156-.20313.35547-.35547.25391-.15625-.10157-.10156-.25391-.0547-.40625.0547-.15235.25781-.10157.41016-.20313.15234-.0508 0-.15234.0508-.25391.15234-.0508.20312-.20312.30469-.2539.25781.0508.46093.20312.61328 0 .15234 0 .30469-.15235.40625-.15235.5625-.15234 1.12109-.45703 1.63281-.15234.40625-.0508.96484-.40625 1.32422 0 .15234 0 .25391.10156.30469.25391.0508.0508 0 .15234.10156.15234.41016.0508.46094-.50781.81641-.50781.35546 0 .66406-.15235.86718.15234.60938.10156.86719-.66015 1.42578-.66015.46094-.10157.76563.45703 1.17188.15234.20312-.10156.51172-.20313.71484-.15234.20313 0 .35547.15234.45703.2539 0 .10156.0508.20313.15235.25391.51172.20312.8164-.35547 1.32812-.15235.40625-.10156.35547.66016.71094.20313.0508-.15234 0-.35547.20703-.35547.30469-.0508.66016-.10156.91406 0 .81641 0 1.32422-.8125 2.03907-.96484.61328.0508 1.17187-.10157 1.53125-.5586.15234-.40625.0508-.96484.55859-1.16797.30859-.20312.86719.0547 1.07031-.30468 0-.19922-.40625-.19922-.30468-.45313.15234-.20312.35546-.20312.50781-.15234.10156.10156.20312.19922.30859.19922.15235-.19922-.10547-.35157-.0508-.60547.15234-.30469.40625-.71094.8125-.76172.10156-.0508.15625-.25391.10156-.40625-.10156-.15234-.2539-.30469-.20312-.50781.10156-.40625.66406-.60938.46094-1.11719-.10157-.66016.2539-1.21875.66015-1.72656.0508-.50782.10156-1.01563.25781-1.42188.40625-.40625.30469-1.01562.60938-1.42187.0508-.60547.15234-1.21875.30469-1.77735.30859-.40625.71484-.65625.76562-1.11718.35547-.35157.76563-.70704 1.22266-.91016.41015-.0508.66406.30469 1.07031.25391.20313.0508.41016.15234.51172.30468 0 .15235.20312.20313.20312.40625.10157.35157-.0508.65625-.0508 1.01563.10157.10156.20313.10156.25391.2539.25391.40625-.40625.40625-.20313.75782.30469.30468.20313.66015.15235 1.01562-.0508.0508-.0508.10156-.10156.15235.10156.0508.20312.0508.2539.15234 0-.15234.15235-.20313.25781-.30469.15235 0 .20313.0508.25391.10156 0 .20313 0 .35547-.10156.45704-.10547.10156-.20703.10156-.3086 0-.0508 0-.0508-.10157-.10156-.0508.10156.45704-.66406.45704-.40625.86329.20313-.0508.30469.10156.40625.2539 0 .0508 0 .10156.0508.15235.0508-.10157.10157-.30469.25391-.20313.10547.0508.10547.15234.10547.25391-.10547.0508-.20703.15234-.35938.0508-.0508.30469-.45703.2539-.50781.50781.30469 0 .45703-.25391.66016-.40625.35937.0508.41015-.45703.76562-.20312.20313.15234 0 .71093.35547.55859.41016.0508.46094.50781.51172.8125-.15234.20312-.15234.40625-.0508.60937.10156.20313.35547.10157.45703.30469.25391-.0508.0508 0 .15234.15235 0 .20312.0547.45703-.0508.60937v.25391c.25781 0 .61328-.10157.76563.15234.10156-.0508.15234.10156.20312.15234 0 .15235.0508.30469 0 .45704-.0508.20312-.40625.15234-.30469.40625.50782 0 .25391-.91407.91797-.71094.20313.20312.50782.60937.86719.45703.10156-.15234.25391-.30469.40625-.35547.30469.10156.66406.20313.96875 0 .35547-.0508.60938.20313.96875.10156.30469-.2539.76172-.40625 1.12109-.20312.5586.0508.91797-.40625 1.42579-.45703.20312.15234.40625-.10157.5625.15234.55859-.25391.35546-.60937.76171-.50781.20704-.15235.51172.35547.46094-.15235.10156 0 .20313-.10156.30469 0v.25391c.20312-.10156.30469-.30469.50781-.40625.15625-.0508.3086-.20312.46094-.10156 0 .15234.25391.0508.25391.20312.20703-.10156.10156-.35547.2539-.50781.0547-.10156.15625-.25391.3086-.30469.10156-.0508.2539 0 .2539.15235v.0508c-.15234.10156-.2539.2539-.35547.35547.15235.0508.25391-.15235.35547-.20313.35547-.20312.35547-.86328.86719-.71094.0508.10157.15234.20313.25391.20313.2539-.10156.15234-.55859.5625-.45703.10156.0508 0 .30469.20312.30469.10156-.0508.20313-.0508.25391-.15235 0-.2539 0-.50781.2539-.60937.20313-.10157.35547 0 .5625-.0508.20313-.30469.5586-.40625.86328-.35547-.0469-.25391.35938-.25391.35938-.50782.15234-.0508.25391 0 .35547.0508.15234-.15235.10156-.45704.35937-.45704.25391.15235.30469-.2539.50782-.10156.0508.15235-.15235.15235-.15235.30469.15235 0 .25391-.0508.35547-.15234.10156-.35547.66406-.5586 1.07031-.60938.45703-.15234.81641-.25391 1.22266-.40625.25781-.0508.41016.20313.66406.15234.20313-.20312.45703-.20312.71485-.20312.30468 0 .35546.50781.71093.35547.10157-.0508.20313.0508.25782.15234-.0547.10156-.0547.10156-.0547.10156.0547.10157.20703.10157.25781.25391 0 .10156 0 .25391-.15625.25391-.10156.0508-.35547.15234-.45703.2539.10156.15235.30469.10157.51172.0508.0508 0 .10156-.40625.2539-.35546.50782.35546-.5625.71093.15235 1.01562.15234.10156.0508.35547 0 .50781 0 .15235-.35547.15235-.20703.35547.10547.10156-.14844.35547-.19922.50781-.10156.10157-.20703.15235-.3086.25391.15235 0 .15235.15234.0508.25391 0 .0508-.0508 0-.10157.0508-.0508-.0508-.0508-.10156-.0508-.20313 0 0 .35547-.15234.35547-.20312-.10156-.0508-.50781.10156-.55859.20312.0508.10157.2539.20313.2539.25391-.0508.0508-.15234.30469-.35547.35547-.10156.0508-.20312-.10156-.2539.0508 0 .66016-.46094.45703-.81641.8125-.30469.25391-.71484-.25391-1.01953.10156-.15234.30469-.45703.40625-.76562.50781-.15235.15235.0508.40625-.15235.5586-.30469.40625-.91797-.20313-1.12109.30078.10156.0547.2539 0 .2539.15625-.0508.20312-.15234.40234-.30468.50781-.20313.10156-.45703.20313-.5586.35547-.15625.0977-.41015 0-.51172.25-.20312.20703-.91796-.15234-.71484.46094-.15234.15234-.40625.19922-.45703.45312-.15234.10547-.30469.15235-.46094.10547-.10156 0-.10156-.10547-.20312-.15625-.0508.0508-.15235.0508-.20313.10156 0 .20704.10156.35547.0508.50782-.2539.20312-.60937.35547-.96875.2539-.2539 0-.2539-.40625-.45703-.30468-.0508.0508 0 .10156-.0508.20312.10156.0508.15234.20313.10156.35547-.10156.0508-.20312.15234-.30468.20312-.10157-.10156-.15625-.2539-.0547-.35546-.10156 0-.15235-.0508-.20313-.0508-.0508.15235-.35547.25391-.2539.45704.10156.0508 0 .15234 0 .2539-.20313.40625-.71094.10156-1.01953.35547-.10157.25391-.35547.30469-.50782.50781-.30859.10157-.61328-.20312-.8164.0508-.10157 0-.20313-.0508-.30469 0-.20703.20313.20312.5586-.20703.66016-.0469 0-.15235 0-.20313.0508v.20313c.15625-.0508.25782.0508.35938 0 .0508.0508.0508.10156.0508.15234-.15234.0508-.0508.20313-.15234.25391-.3086-.0508-.5625.30468-.76563 0-.10156.0508-.10156.10156-.0508.15234.20312.20313.20312.20313.20312.20313-.0508.10156 0 .35546-.20312.35546-.15234.0508-.30859.45704-.46094.15235-.10156-.10156.20703-.20313-.0508-.20313-.10156.10157-.10156.35547-.30469.25391-.10156-.10156-.0508-.25391-.10156-.40625-.0508.10156-.10156.25391-.0508.35547.15234.15234.15234.35547.10156.55859-.0508.10156-.10156.20313-.20312.30469-.20313.10156-.51172-.25391-.5625.10156-.15235.15235-.30469-.15234-.50782-.0508-.25781-.0508.0508-.35547-.25781-.35547-.10156-.10156-.0469-.2539-.10156-.35547.20703-.10156.25781.20313.46094.15235.10156 0 .2539.0508.40625 0 .10156-.10157.20312-.25391.35937-.30469 0-.0508 0-.0508 0-.0508-.30859-.0508-.41015-.15235-.71484-.30469-.15235-.35547-.76563-.10156-.66406-.60937-.20313-.10157-.45704 0-.71094 0 .10156.20312.35547.55859.30469.8125-.0508.10156-.40625.10156-.20313.30468.0508.10157-.0508.15235-.10156.15235-.15625 0-.15625 0-.15625 0 0 .15234 0 .40625-.14844.45703-.15625 0-.25781 0-.35937.10156.0508.30469.30468.0508.40625.15234.15625.0508.25781.15235.35937.30469.0508.20313-.20312.30469-.10156.50781.10156-.10156.20312 0 .30469 0 .0508.15235 0 .25391 0 .40625.30468.25391.66015.45313.66015.91407 0 .0976-.10156.25-.20312.35156-.20313.25781-.20313.25781-.20313.25781.15235.10156.40625-.10547.46094.14844.0508.15234-.71484.81641-.51172.91797.20313.0469.45703.0976.5625.30469.10156.0976.0508.30078.20313.35156.15234-.0508.30468-.10156.45703-.0508.15625.15234 0 .20312.10156.30468.0547.15235-.15234.35547.10156.35547.20703.0508.5625-.10156.61328.15235.0508.30468.20313.71093.5625.8125.20313.10156-.15625.55859.20313.30468.10156.0508.2539.0508.2539.20313 0 .0508.0508.15234 0 .20312.45704.0508.30469.76172.81641.66016.10156.0508.15234.20313.15234.35547 0 .10156-.0508.15234-.15234.25391.20313.15234.55859.15234.55859.50781.0508-.10156.10157-.0508.15235-.10156.15234.0508.15234.20312.10547.30468-.0547.0508-.10547.0508-.15625.0508-.10157-.15234-.10157-.15234-.10157-.15234-.20312.15234-.40625.35547-.2539.66016.10156.15234.2539.30468.40625.30468.20703-.0508.41015-.2539.66406-.10156.20313.25391.61328.30469.55859.66016.10547-.25391-.0469.55859-.0469.45703.0469.10156.0469.10156.0469.10156.10547-.10156.0547-.2539.10547-.30469.10157-.10156.25391.10157.40625.0508.25391.2539.50782.20312.25391.86328-.10156.10156.51172-.20703.66406-.15235.15235.20313.40625.40625.30469.71094-.10156.10156-.25391.19922-.15234.35156.20312.15235.71484-.71093.86718-.45312.10157.30078.45703-.10547.60938.15234.2539.14844 0 .45313.2539.60547 0 .10156-.45703.71094-.50781.30859-.2539-.10156-.35547-.40625-.35547-.61328-.0508 0-.15234.15235-.20312.20703.10156.35157.15234.60547.2539 1.01172.0508-.0469.25391-.35547.35547-.2539.10157.35937.0508.66015.0508 1.01562.10157.15235.20313 0 .30469.0508.20703.10157.20703.30469.3086.45703.0508.10157-.0508.20313.0508.25391.0508-.0508.20312-.0508.2539 0 .10157.15234.15235.30469.35547.40625 0 .15234-.0508.25391-.15234.35547-.15235.0508-.30469-.0508-.35547-.15234-.0508 0-.0508.10156-.0508.15234.20312.10156.40625.35547.66015.10156.15625.0508.25391.15235.25391.25391.10547.35547-.60937.40625-.19922.71094.0508-.10157 0-.30469.15235-.30469.20312.0508.40625.2539.50781.45703-.0508.20312.15234.35547.10156.60937.10156.0508.25781.0508.30469.15235 0 .10156-.0469.20312-.15235.20312-.10156 0-.15234.0508-.20312.10157-.0508.15234.10156.20312.20312.2539.10547.0508.20704.0508.20704.15235-.10157.15234-.20704.30468-.3086.35546.51172 0 .0508.91407.61328.50782.15235 0 .15235.15234.20313.2539-.0508.25391-.15235.45703-.0508.76172.15234 0 .30468 0 .30468.15235-.0508.2539-.0508.40625.10547.60937.20313.15234.5586.20313.5586.55859.15234 0 .30468.20313.35547.30469.0508.30469.0508-.40625.51171 0 0 .15235.0508.55469-.10156.60547-.10156 0-.20703.25391-.30859.15234-.0508.20313-.0508.0508-.0508.25391.20312.20313.41015.45703.30468.76172-.0469.25391-.30468.35547-.2539.60937.0508.20313-.20313.40625-.35547.5586-.15234-.0508-.25391.20312-.40625.20312-.15234.20313.10156.71094-.30859.76172-.40625.30469-.86719 0-1.27344.20313-.15235.10156-.30469-.0508-.40625-.10157-.10156-.20312-.10156-.20312-.10156-.20312-.15235.15234-.35938.10156-.51172.0508-.20313-.10156-.0508-.45703-.35547-.40625 0 .0508-.0508.10156-.0508.10156-.15235.0508-.20313-.20312-.35938-.15234-.30469-.20313-.30469-.60938-.30469-.91406 0-.15235-.10156-.10157-.20312-.15235-.20313-.15234-.40625-.35547-.50781-.60937-.0508-.10156 0-.20313.0508-.25391.10156-.10156.2539 0 .35547.0508-.10157.25391 0 .50782.15234.71094.10156-.10156-.15234-.20312 0-.35547.10156 0 .10156-.10156.10156-.20312-.35547 0-.10156-.60938-.55859-.40625-.0508-.0508-.10156-.15235-.15234-.10157.0508.0508.0508.15235 0 .20313-.0547.10156-.15625.0508-.20704.0508-.0508-.0508-.10156-.10156-.0508-.15234.0508-.0508.0508-.10157.10157-.15235h.10156c0-.0508.0547-.15234-.0469-.20312-.15625-.0508-.41015.15234-.35937-.10156.20312-.0508 0-.20313.0508-.25391-.15234-.19922-.40625-.35156-.30469-.65625-.10156-.10156-.10156-.10156-.10156-.10156-.10156.15234-.10156.35547-.30859.2539-.10157-.2539-.50782-.50781-.20313-.76172.10156-.10156.20313-.20312.0508-.2539-.15234-.15235-.2539-.0508-.40625-.0508-.30469-.0508-.15234-.50782-.46094-.40625-.14843.0508-.20312-.10157-.30468-.15235 0-.20312 0-.40625-.25391-.40625-.10156-.0508-.25391-.0508-.25391.10157.10157.10156.40625-.0508.35547.20312.10157.10156.15235.10156.15235.20313.0508.10156-.10157.10156-.10157.20312-.10156.0508-.2539 0-.30468-.0508-.10157-.15234-.35938-.25391-.25782-.50781-.20312-.20313-.20312-.45703-.40625-.66016.0508-.25391-.10156-.45703-.35546-.60937-.0508-.0508-.10157-.0508-.20313-.0508-.0508-.15234.10156-.30468-.15234-.40625-.15235.10157-.3086 0-.51172 0-.10156-.15234-.40625-.2539-.35547-.50781-.30859-.0508-.46094-.30469-.66406-.55859-.10157-.20313.10156-.66016-.30469-.71094-.10156 0-.25391.10156-.35547 0-.10547-.20312-.41016-.15234-.46094-.35547.0508-.30469.10157-.45703.10157-.76172-.15235-.10156-.25391-.30468-.40625-.35547-.20313.0508-.35547.25391-.5625.15235-.10157-.10156-.35547-.15235-.25391-.40625.0508-.0508-.0508-.10156-.10156-.10156 0-.15235 0-.30469.0508-.40625-.0508-.0508-.10156-.20313-.25391-.20313-.10156-.10156.10156-.25391-.10156-.25391 0 .30469-.30859.0508-.46094.25391-.20312.0508-.30469-.20312-.40625-.25391-.0508-.0508 0-.15234 0-.15234.0508-.15234.15235.0508.15235-.10156.10156-.15235.35937.0547.35937-.15235.0469 0 .0469 0 .10156-.0508-.15625-.20312-.25781 0-.41015-.0469-.0508.0469-.10157.0976-.10157.0976-.15234-.0508-.2539-.2539-.40625-.19921-.20703-.20704-.25781.30078-.46093.10156-.20313-.15625-.20313-.40625-.35547-.5586-.20313.0977-.41016.0469-.66406 0-.10157-.10156-.0508-.20703-.10157-.30859-.0508-.19922.20703-.25-.0508-.40234-.20312.0508-.30469.0508-.50781.0508-.15625-.10547-.10156-.25391-.15625-.40625 0-.0508.0547-.15235 0-.25781-.0469-.0469-.15234-.0469-.25391-.0469-.0508.10156 0 .19922-.10156.25391-.15234.0508-.25391-.0547-.35547-.15235 0-.15234.0508-.40625-.15234-.46093-.10156 0-.15235-.0977-.10156-.14844-.15625.0508-.20313-.25391-.35938-.10156-.20312-.0508-.10156.15234-.15234.20312-.10157.0469-.15235-.0508-.20313-.10156.10156-.20313-.0508-.35547-.2539-.40625-.10157-.10156 0-.25391-.10157-.35547-.0547-.10156-.10156 0-.20703-.10156-.0508.0508-.0508.0508-.0508.0508.10156.0508.10156.15234.20313.2539 0 .0508 0 .15235-.0469.20313-.41016.0508-.61328-.30469-.96875-.15234-.15234-.0508-.46094.30468-.41016-.0508 0-.10156-.10156-.15234-.20312-.10156 0 .10156.0508.15235 0 .25391-.20313 0-.35547.55469-.5625.15234-.0469-.0508.0547-.10156.0547-.15234-.25782 0-.35938.35547-.61328.15234-.30469.0508-.0508.35547-.35547.45703-.10157.15235-.3086.15235-.46094.0977-.0508-.0469-.10156 0-.10156 0-.10157.0547-.10157.0547-.10157.0547.15235 0 .10157.15234.20313.2539-.0508.0977-.10156.20313-.20313.25-.10156-.0976-.35546.10547-.30468-.15234 0-.0469.15234.0547.15234-.0977-.35937 0-.71484.35547-1.07031.0977-.10156-.0977-.20313-.0469-.30469-.0977-.25391.0977-.30859.40625-.35937.60938.15234 0 .10546-.20313.20703-.25391.10156-.0508.10156-.25781.2539-.20312.25391.0976 0 .2539.10157.40625 0 .15234-.0508.25-.10157.35156-.20312.10547-.41015.25781-.61328.20703-.20312-.0547-.10156-.35547-.30469-.15625.0508.15625.30469.15625.20313.35547.10156 0 .20312-.0469.25391 0 .20703.0508 0 .15234 0 .20312-.10157.10157-.20313.20704-.30469.25391-.15235-.15234-.15235-.15234-.15235-.15234-.0508.10547-.15234.15234-.20312.2539.15234.0508.15234.30469.0508.45703 0 .0508-.10156.15235-.20703.10157-.0469-.0508-.10156-.0508-.14844-.0508-.15625.15625.0469.30468-.0547.45703 0 .10156-.0508.20312-.15234.25781-.20312.0469-.45703-.25781-.55859.0469-.25391.10157-.51172-.20312-.61328.15235 0 .0508.0508.10156.10156.15234.10156-.0508.20312-.20312.35937-.10156.0508.25391-.25781.20312-.30859.40625-.10156-.10156-.35547-.0508-.40625-.20313-.0508-.10156.15234-.15234 0-.20312-.0508.0508-.20313.0508-.25391.0508-.0508-.15234-.20312-.10156-.30859-.0508-.10156.15234-.25391.35547-.45703.45703 0 .0508 0 .10156.0508.10156.15234-.0508.30469-.45703.51172-.20312.10156.10156.30469-.0508.45703.10156 0 .10156-.0508.20313-.15234.25391-.0508-.0508-.10157-.0508-.15235-.0508-.0508.15234-.20703.15234-.35937.20312-.10157.0508-.15235-.0508-.25391-.10156-.0508.10156.0508.20312-.0508.2539.10156.10157.15234 0 .25391.10157 0 .15234 0 .35547-.20313.40625-.0508.0508-.10156 0-.15234-.10157 0-.0508.0508-.15234 0-.20312-.0508.20312-.35547.45703-.0508.60937.0508.15235-.0508.30469-.10157.45704-.10156.0508-.20312.0508-.30859.10156v.20312c-.10156.10157-.40625 0-.35547.25391-.20312.0508-.30469.45703-.45703.25391-.0508-.30469.15234-.45704.15234-.76172.10157-.10157.35547.0508.30469-.15235-.15234-.10156-.30469 0-.45703 0-.10156.20313.10156.60938-.25781.60938-.15235.0508-.20313-.10156-.30469-.15235-.40625.15235-.10156.71094-.50781.8125-.25391.15235-.41016-.20312-.61328 0-.10157.10157-.25391-.10156-.30469.10157.15234.20312-.10156.35547-.0508.50781.10156 0 .35547.0508.40625-.15234-.0508-.10157 0-.20313 0-.30469.20703-.15235.20703-.15235.20703-.15235.0469.0508.0469.20313.15234.25391.30469 0 .30469-.30469.5586-.25391.0508 0 .0508.0508.0508.0508.0508.2539-.25391.35546-.15235.66015-.0508.10156-.10156.25391-.2539.30469-.0508-.0508-.15235-.0508-.25391-.0508-.20312.20312 0 .50781-.25781.71094-.10156.15234-.30469.15234-.45703.10156-.10157-.0508-.20313-.0508-.25391.0508-.0547.30469-.0547.76172-.41016.96484-.20312 0-.30468-.10156-.45703-.2539-.10156.15234-.10156.40625-.35547.40625-.10156.0508 0 .15234-.0547.20312-.15235.0508-.25391.30469-.40625.10156-.0508-.0508-.0508-.0508-.0508-.0508 0 .20313-.40625.30469-.15235.5586 0 .0508.0508.10156.10156.0508.10157 0 0-.10156.0508-.15235.20312-.15234.2539-.35546.51171-.30468.10157.10156.30469.20312.15235.35547-.10156.20312-.46094.15234-.35938.45312-.0508.10156-.10156.20313-.20312.25391-.10156 0-.20313-.0508-.25391-.10157-.15234.10157-.10156.20313-.10156.30469.10156.0508.15234.15235.10156.25391-.15234.10156 0 .45703-.2539.35547-.0508-.0508-.10547-.15235-.20704-.15235 0 .10157-.0508.30469.10157.35547.0547.20313.30859.35547.15625.60938-.15625.0508-.25782.2539-.46094.20312-.0508.60938-.71094.86328-.8125 1.3711-.20703.30468-.81641 0-.71484.55859-.15235.50781-.91797.15234-.91797.76172-.10157.30469-.50782.10156-.71094.35547.10156 0 .20312.0508.10156.15234-.10156.10156-.20703.20313-.30859.25391-.0508-.0508-.0508-.15235-.0508-.20313.0508-.15234.25781-.0508.30468-.20312-.0469 0-.2539.0508-.30468-.0508-.20313.2539 0 .66015-.40625.76171-.10157 0-.20313 0-.25782-.15234-.0469-.30469-.0469-.30469-.0469-.30469-.10547-.0508-.15625.10157-.20703.10157 0 .15234.10156.30468 0 .40625-.25391.30468-.60938.50781-.96875.40625-.20313.10156-.30469.30468-.30469.50781.15234.20312-.10156.55859.15234.76172.0508.15234.0508.35547-.0508.50781-.10156.30469-.35547.20312-.55859.25391.20312.10156.15234.30468.15234.45703-.15234.15234-.30468.20312-.51172.10156-.0508 0-.10156-.0508-.15234-.10156-.0508.10156-.25391.20312-.15234.40625.15234.10156.20312.2539.10156.40234-.10156.0508-.20313-.0977-.25391 0 0 .20313.0508.50781-.2539.55859-.15235.10157-.41016-.0508-.61328.0508-.30469.0508-.30469.45703-.5586.60937 0 0 0 .0508.0508.10156.10157-.15234.40625-.0508.30469-.35547.10156-.15234.20313-.35546.40625-.30468.10547.0508.10547.15234.0508.2539-.15234 0-.15234.20313-.15234.30469.10156.0508.10156.0508.10156.0508-.0508.15235-.0508.30469-.20312.35547-.15235.0508-.10157-.20312-.25391-.15234-.0508.0508-.15234.15234-.25391.10156-.0508-.20313-.0508-.20313-.0508-.20313-.15625.20313-.35937.20313-.51172.0508 0 0-.0508.0508-.15234.0508-.0508-.0508-.0508-.15235-.15234-.10157-.0508.15235-.10157.30469-.25391.35547.20312.15235.15234-.2539.35547-.10156.0508.15234.15234.30469.0508.40625-.15234.15234-.30469 0-.45703-.0508zm1.67969-.60938c-.0508 0-.0508 0-.0508 0zm-3.71875-2.9414c.0508-.10156.15234-.20313.15234-.30469-.0508-.0508-.0508-.15234-.15234-.10156-.10157.0508-.20704.10156-.15235.2539 0 .0508.0508.15235.15235.15235zm6.0625-.76172c.10156 0 .10156-.10156.0508-.10156-.0508 0-.0508 0-.0508 0s-.0508.0508-.0508.0508c.0508.0508.0508.0508.0508.0508zm.15625-.20313c.10156-.0508.15234-.20312.15234-.35546 0-.10157-.0508-.25391-.20703-.20313-.20313.0508-.15235.20313-.15235.35547.0508.0508.0508.20312.20704.20312zm-4.23438-1.98046c.0547-.15235.25781-.35547.15625-.5586-.15625-.15234 0-.35547-.15625-.50781-.10156-.0508-.20312 0-.25391.10156-.15234.20313.0508.35547.0508.50781-.15235.10157-.15235.20313-.10157.40625.0508.10157.20313.10157.30469.0508zm5.60938-.30469c.0508-.15235.2539-.10156.30468-.20313-.30468-.2539.20313-.45703-.10156-.71093-.30859 0-.20312.30468-.30859.45703-.0469.15234 0 .35547.10547.45703zm1.88281-1.52344c.15625 0 .25781-.10156.35937-.20312 0 0 .10157-.0508 0-.10157 0-.10156-.10156-.2539 0-.35547.0508-.0508.15235-.10156.10157-.20312-.20313.25391-.46094.25391-.76563.60937.10156.0508.25391.15235.30469.25391zm35.98437-.20312c.20313 0 .25391-.20313.35547-.25391.10156-.15234.25391-.35547.10156-.50781-.15234-.0508-.10156.15234-.2539.15234 0 .20313-.20313.0508-.30469.20313 0 .15234-.0508.30468.10156.40625zm-34.40234-.71094c.0508-.15235.0508-.15235.0508-.15235-.10156 0-.20312-.20312-.30469-.0508.0508.10157.20313.10157.25391.20313zm35.42187-1.67578c.10157-.10157.10157-.20313.10157-.30469-.0508-.0508-.0508-.20313-.20313-.20313-.10156.0508-.15625.15235-.15625.30469.0547.10156.15625.20313.25781.20313zm-6.47265-1.57032c-.25781-.15234.15234-.2539.0508-.50781-.15236-.10156-.15236-.10156-.15236-.10156-.10157.10156-.10157.10156-.10157.10156-.10547.15235.10157.35547.20313.50781zm-1.9375-2.13281c0-.35547 0-.35547 0-.35547-.0508-.10156-.10156-.2539-.25391-.2539-.15625.20312-.15625.20312-.15625.20312s-.0469.45703 0 .45703c0 .0508.25781-.20312.25781-.15234 0 .10156.0508.10156.15235.10156zm-1.375-.8125c0-.0508.0508-.15234 0-.15234-.10156.0508-.25781-.0508-.25781.10156.0547.15234.25781.20313.25781.0508zm.35547-.35547c.0508-.10156.0508-.2539 0-.30468-.0508-.0508-.15235-.15235-.25391-.15235.0508.20313-.0508.45703.25391.45703zm-22.01563-.71093c.10156-.20313.40625-.25391.50781-.45704-.0508 0-.0508-.0508-.10156 0-.20312-.0508-.0508-.2539-.15234-.35546-.10156-.20313-.25391 0-.35938.10156.10547.2539 0 .50781 0 .71094.0547-.0508.0547 0 .10547 0zm1.9375-.30469c.10156-.0508.10156-.0508.10156-.0508 0-.0508-.10156-.15235-.15625-.10157zm25.83594 1.57422c.0508-.30469-.0508-.50782-.30469-.71094.20313.30469-.2539.45703-.10156.71094 0 .30468.30469.0508.40625 0zm-33.73828-2.48828c-.0508-.0508-.10156-.15235-.20313-.10157v.0508c-.10156.20313.25391.20313.20313.0508zm6.57422-.15235c.10156-.10156.20312-.20312.20312-.35547-.0508 0-.0508-.15234-.15234-.10156-.20313.10156-.35547.30469-.30469.55859.10156 0 .15234-.15234.25391-.10156zm.86718-.20312c.15235-.10157.30469-.35547.50782-.35547.0547-.0508.10156-.10156.10156-.20313-.25391.0508-.45703.0508-.66016.25391-.0508.10156-.0508.25391.0508.30469zm17.32813-.15235c.10156-.0508.10156-.15234.10156-.2539-.0508-.15235-.10156-.45703-.35547-.35547.0508.15234-.20703.20312-.0508.35547.15235.0508.15235.2539.30469.2539zm8.20312.35547c.20704-.15234-.10156-.20312-.15234-.30469-.0508-.10156 0-.35546-.15234-.40625.0508.15235 0 .30469 0 .50782.0508.10156.20312.20312.30468.20312zm.25782-.40625c-.10157-.35547-.10157-.35547-.10157-.35547 0 .0508-.10156.10157-.10156.20313.0508.0508.15235.15234.20313.15234zm-9.73438-1.42187c0-.0508-.0508-.0508-.10156-.0508-.0508 0-.0508 0-.0508.0508s.15234.0508.15234 0zm-.20312-.0508c.0508-.0508.0508-.20313 0-.25-.0508 0-.15235-.0547-.20703.0469.0547.10156.15625.15234.20703.20313zm-13.5586.15236c.10157-.10156.30469-.10156.35938-.30469.30469.10156.20312-.0976.20312-.15234.10157-.25391.0508-.15235 0-.30469-.35937.40625-.61328.0508-.66406.71094 0 .0508.0508.0508.10156.0508zm12.48828-.86328c.10157-.0508.25391-.0508.25391-.15235-.0508-.0976-.10156-.0508-.20312-.0508-.10157 0-.10157-.20312-.20313-.10156 0 .15234.10156.20703.15234.30469zm-20.18359-.35156c.20313-.0547.10156-.25782.15234-.41016 0 0-.0508-.0469-.10156-.0469-.15234.0469-.20312.19922-.2539.35157.0508.0508.10156.10547.20312.10547zm.71484-.20704c.10157-.15234.25391-.45703.15235-.55859-.0508.10156-.10156.35547-.25391.25391 0 .10156 0 .2539.10156.30468zm-.41015-.40234c0-.10156-.0508-.0547-.10156-.0547v.0547c0 .0977.10156.0508.10156 0zm16.41406-1.21875c.10156.10156.15234-.0508.25391 0 0-.10156.0508-.20703.0508-.25391-.15235.0469-.10156-.10546-.15235-.15234-.10548-.05078-.15236-.05078-.25783-.05078-.0508 0-.0508.0508-.0508.15234.0508.0977.10156.20313.15625.30469zm-15.08984-1.11719c.10547-.10156.25781-.15234.41015-.15234.15235 0 .15235-.20313.10157-.30469-.10157-.0508-.25391 0-.35547.0508.10156.25391-.25782.20313-.15625.40625zm13.8125-.0508c-.0508-.10156.0508-.10156.10156-.10156-.0508 0-.0508.0508-.10156.10156zm-12.79297-.91404c.10156-.10156.35937-.0508.35937-.25391.0508-.20312-.10156-.45703-.30468-.60937v.10156c.14843.10156.0469.30469.10156.45703-.10156.10156-.15625.20313-.15625.30469zm-.76172-.15234c.10156-.10157.20312-.25391.20312-.40625 0-.15235.15235-.30469.0508-.45704-.10157.0508-.25391-.0508-.30469.0508.0508.2539-.3086.35546-.15235.66015 0 .10156.10157.15235.20313.15235zm20.69141-3.04688c0-.0508.35546-.45703.45703-.45703.10156-.10156-.45703-.0508-.45703-.20313-.3086.20313-.3086.20313-.3086.20313-.0469.15234.10547.40625.3086.45703zm-20.23438-1.92969c.10156-.0508.20313-.14843.25391-.20312 0-.0508 0-.15235-.0508-.15235-.10157.10157-.25391 0-.40625 0-.0508.0547-.15235.0547-.10157.20704.0508.0976.20313.14843.30469.14843zm-11.36328-4.41406c.25391 0 .50781-.15234.71094-.30469-.0508 0-.10157 0-.20313.0508-.15234.0508-.35547.15235-.50781 0-.10547-.45703-.5625-.10156-.66406-.20312.0508.0508.0508.0508.0508.0508.20312-.0508.35937.0508.46094.15234.10156.10157.0469.20313.15234.25391zm31.08594-.71094c-.15235-.0508-.15235-.30468-.35547-.2539v.0508c-.15235.10156-.10156.2539-.10156.40625.15234.15234.30468-.15235.45703-.20313zm1.68359-.91406c.0508-.15234.30469.20313.35547.10156.10156 0 .15234.15235.20703.10157.14844-.20313-.10547-.60938-.20703-.66016-.10156.0508-.30469.35547-.35547.45703zm2.34375-.55859c.35547-.0508.30469-.45703.35547-.71094-.0508-.0508-.0508-.0508-.0508-.0508-.20313-.10156-.40625.0508-.5586.20312 0 .20313-.0508.35547 0 .50782.0508.10156.15235 0 .25391.0508zm-31.34375-1.21875c.10156 0 .15234-.15235.10156-.20313-.0508-.10156-.10156-.10156-.15234-.15234-.15234 0-.30469-.10156-.40625.0508-.10547.25391.20312.40625.45703.30469zm34.40234-2.28516c-.0508-.0469-.20312-.40625-.2539-.40625-.10156.0547-.20313.50781-.25781.61328.20703.15235.76562.25.51171-.20703zm4.9961-2.08203c-.10156-.0977-.20313-.0469-.3086-.0977v.0977c0 .10547.25391.15625.3086 0zm.96484-.25c.46094 0 .25781-.45703.25781-.35547-.0508-.10156-.20312-.10156-.35937-.10156-.10156.0508-.10156.20312-.15234.30469.10156.10156.15234.15234.2539.15234zm.71485-.50781c.15234.0508.20312-.15235.35546-.15235.0547-.10156 0-.2539-.0469-.35547-.10547-.0508-.20703.0508-.30859.10157-.10157.10156-.15235.2539-.15235.40625 0 .10156.10156.10156.15235 0zm-5.85938-2.9961c.10156.0508.10156-.10156.15234-.15234-.0508-.0508-.0508-.15234-.10156-.20313-.0508 0-.15234 0-.20312.0508 0 .10156-.0508.10156.15234.30468zm8.40625-.50781c-.25391-.35547-.25391-.35547-.25391-.35547-.0508.0508-.2539.35547-.2539.45703.35547.30469.40625 0 .50781-.10156zm-24.15625-1.47266c.0508-.0508.15234-.10156.10156-.20312 0 0-.0508-.10156-.10156-.0508-.15234-.0508-.10156.10156-.15234.20312.0508.0508.10156.0508.15234.0508zm0 0" fill="#c7260a"/></g><path d="m266.3889-15.282822c-.0717-.05375-.1447.01792-.21636 0-.10748.03583-.10748.143316-.14331.232886.0358.03583.10748.01792.1254-.01792.0537.03583.10886-.03583.14469-.07166.0537 0 .0896-.05375.10749-.07166-.0179-.01792-.0179-.03583-.0358-.03583" fill="#c7260a"/><path d="m263.11605-13.17029c-.0896-.05374-.17914.03583-.27009 0-.1254.05374-.1254.179144-.16123.286632.0358.03583.1254.01792.14469-.03583.0717.05374.1254-.03583.17915-.07166.0537-.01792.0896-.05374.1254-.08957-.0179-.01792-.0358-.03583-.0537-.03583" fill="#c7260a"/><path d="m264.75316-14.800508c-.0717-.05237-.16261.0193-.23426 0-.10749.0372-.10749.143316-.12678.234266.0372.01655.091.01655.10886-.03721.0717.03721.1254-.01654.16123-.07028.0551 0 .0717-.03583.10887-.07304-.0179-.01655-.0372-.01655-.0537-.03447" fill="#ae000a"/><path d="m263.63833-16.411436c-.091-.05374-.16261.01792-.23427 0-.10748.03583-.10748.143316-.1254.23289.0358.01792.0896.01792.10749-.01792.0717.03583.10749-.03583.16123-.07166.0358-.01792.0717-.05374.091-.08957 0 0-.0193-.01792-.0358-.01792" fill="#ae000a"/><path d="m264.37558-15.39031c-.073-.05374-.14469.01792-.21635 0-.10749.03583-.10749.143316-.14332.23289.0358.01792.10749.01792.1254-.03583.0717.03583.10749-.01792.16124-.07166.0372 0 .073-.03583.0896-.07166 0-.01792-.0165-.01792-.0358-.03583" fill="#ae000a"/><g transform="matrix(.3527778 0 0 .3527778 -.469596 -181.13662)"><g clip-path="url(#d)"><path d="m721.84375 503.23047c-.10156-.30469-.20313-.71094.0508-.96485.10156 0 .25391-.10156.35547 0 .25391.10157-.0508.5586.30859.60938.40625.15234 1.11719.20312 1.07032.8125 0 .20312-.25782.30469-.46094.35547-.50781-.0508-1.07031-.30469-1.32422-.8125zm2.24219-1.6211c.60937-.30468.2539-.96484.45703-1.47265.0508-.20313.2539-.20313.41015-.25391.35547-.20312.30469-.55859.25391-.91406.0508-.20313.15234-.45703.35547-.50781.30859-.15235.30859-.45703.51172-.60938.10156-.10156.30469-.20312.45703-.2539.25391-.20313.66406-.45704.61328-.8125-.0508-.5586-.51172-.76172-.61328-1.21875 0-.0508 0-.0508 0-.0508-.0508 0-.0508 0-.0508 0-.10156-.2539-.15235-.50781 0-.71093.10156-.20313.20312-.45703.20312-.71094-.10156-.15234-.35547-.20313-.50781-.20313-.25391.15235-.20312.45704-.20312.66016-.35938.45703-.35938.45703-.35938.45703-.0508.30469.0508.60938.20703.86328.0508.10157 0 .30469-.15625.40625-.0508-.0508-.10156 0-.15234-.0508-.20313-.15234.0508-.30469-.0508-.50781-.10157-.15234-.25391-.20313-.40625-.15234-.15235.20312-.35938.15234-.51172.30468-.35547.45703.15234.91407.30859 1.3711-.10156.2539-.30859.45703-.61328.60937-.5625.30469-.20312 1.11719-.86719 1.3711-.2539-.0508-.55859-.0508-.8125.15234-.15625.15234-.15625.35547-.15625.60937.0508.20313.20313.35547.41016.50782-.15234.15234-.41016.10156-.51172.35547-.25391.35546 0 .86328.15234 1.21875.61329.80859 1.07422-.35547 1.63282-.45704zm-.86719-.76171c-.0508-.20313-.20313-.30469-.35547-.40625.10156.15234.55859-.20313.66406.15234 0 .15234-.0547.35547-.20703.45703-.10156-.0508.10156-.35547-.10156-.20312zm42.14844-4.77344c.30468.10156.55859-.15235.8164-.30469.25391.0508.5625 0 .76563-.25391.2539-.35546-.3086-.30468-.41016-.55859.15235-.10156.3086-.15234.46094-.30469.0508-.15234.0508-.30468.0508-.40625-.20312-.2539-.20312-.2539-.20312-.2539-.5625-.10157-.5625.20312-1.07032.20312-.46093 0-.5625-.55859-.66406-.91406-.25391-.8125.25391-1.77344-.20312-2.48438-.20704-.15234-.46094-.15234-.76563-.30468-.61328-.25391.10156-.91407-.25391-1.32032-.10156-.0508-.25781 0-.35937.0508-.20313-.10157 0-.40625-.15234-.50782-.10157-.15234-.25391-.20312-.35547-.20312-.15235-.10156-.20313-.25391-.25391-.35547.10156-.45703-.0508-.8125-.41016-1.11719-.20312-.30469.15235-.45703.15235-.71094 0-.15234 0-.30468-.15235-.35546-.35546 0-.30468 0-.35546.15234-.15235.20312-.0508.40625-.20313.55859-.0508.0508-.10156.10157-.15234.0508-.20703-.0508-.15235-.40625-.15235-.40625.15235-.20312.15235-.55859.0469-.76171-.15235-.15235-.40625-.10157-.60938-.0508-.10156-.15234-.20312-.2539-.20312-.40625.2539-.20312.10156-.55859.0508-.76171-.10156-.15235-.25391-.60938-.46094-.60938-.40625-.15234-.35547.10156-.50781-.25391.0508-.2539-.35938-.2539-.35938-.45703-.20312-.19922-.10156-.45312-.10156-.70703-.10156-.10547-.0469-.20312-.15234-.30469.0508-.20703.35937-.20703.46094-.2539-.10157.15234-.10157.35547-.15235.50781.0508.19922 0 .50391.25391.60547.40625.25781.40625-.40625.76562-.35547-.10547.15625-.15234.30859-.20703.46094.0547.0976.15625.25.3086.19922.10156-.0469.30468-.15235.2539-.30469.15235-.19922-.15234-.35547.15235-.50781.10156-.15235.20312-.25.30468-.40235.0508-.10156 0-.2539-.10156-.35547-.35547-.10546-.55859-.40625-.91797-.55859-.20312.0469-.20312.25391-.30469.40625-.0508.0469-.15234.15234-.2539.10156.10156-.2539-.25391-.50781 0-.76172.0508-.20312-.10156-.35546-.20313-.50781-.20703-.10156-.46093.0508-.66406.20313-.20312.20312 0 .55859-.0508.8125-.0508.35156-.45703.15234-.55859.45703.0508.2539-.25782.35547-.20704.60547-.0508.10156.0508.30859-.10156.30859 0 .35156.15235.60938.41016.80859-.10156.50782.2539.40625-.25781.5586-.25391 0-.5586.10156-.71094-.15235.0508-.5039-.20313-.8125-.30469-1.26953-.76562-.10156-.76562-.10156-.76562-.10156-.81641-.91016-1.22266-1.0625-2.19141-1.67187-.35547-.15235-.30859-.5586-.46094-.86329-.10156-.45703-.40625-.30468-.91797-.50781-.10156-.0508-.2539 0-.35547.10156-.20312.15235-.30468.60938-.60937.50782-.5625-.60938.40625-.8125.60937-1.21875 0-.20313.10157-.45703-.15234-.5586-.30469-.2539-.55859.15235-.91797.10157-.0508-.10157-.15234-.20313-.15234-.30469-.0508-.15235-.0508-.35547.10156-.45703.0508-.25391.30859-.66016 0-.91407 0-.15234-.25391-.10156-.20312-.2539-.41016-.66016.66015-.71094.66015-1.26953 0-.15235-.10156-.30469-.20312-.40625-.15235-.0508-.25391.0508-.40625.0508-.20313.40625-.50782-.0508-.81641.10156-.50781.10156-.66016.8125-1.22266.71094-.15234-.0508-.15234-.30469-.30468-.25391-.41016-.40625-.81641.20313-1.27344 0-.10156-.2539-.20313-.45703-.46094-.60937-.20312.10156-.50781.15234-.55859.40625-.0508.2539-.3086.20312-.51172.20312-.20313.0508-.40625.20313-.50781.45703-.20703.20313.0508.5586-.20703.76172-.0469 0-.10157 0-.10157-.0508-.55859-.35547.15625-.86328 0-1.37109-.0469-.10157-.15234-.20313-.30468-.15235-.15235 0-.25391.15235-.30469.25391-.0508.10156-.10156.30469 0 .40625 0 .10156.10156.25391 0 .30469.0508.10156-.10156.20312-.15235.2539-.0508 0-.15234-.0508-.20703-.0508-.15234-.15234-.10156-.35547-.10156-.50781.25781-.50781.35938-1.06641 0-1.52344 0-.55859 0-.55859 0-.55859 0-.50391.51172-.50391.66406-.91016.0508-.15234.15235-.40625-.0508-.55859-.20312-.20313-.55859-.15235-.8164-.10547-.30469 0-.66016.35937-1.01954.0547-.50781-.46094.0508-1.21875-.40625-1.67578-.0508-.20313-.20312-.40625 0-.5586.40625-.20312.81641-.45703 1.07032-.86328.0508-.30469.45703-.35547.40625-.66016 0-.35546-.10157-.60937-.25391-.91406-.0508-.20312 0-.45703.15234-.60937.15235 0 .35547-.10157.45704.10156.25781.15234.30859-.20313.46093-.25391 0-.2539.25391-.50781.35938-.71093.30469-.0508.40625.30468.60937.45703 0 .20312.15235.35547.10157.60937 0 0-.0508.0508-.0508.0508v.25391c.10157.25391.40625.40625.71485.40625.15234 0 .30469-.0508.40625-.20313.0508-.40625.51172-.71093.41015-1.16796-.30859-.35547-.35937-.86329-.15625-1.26954-.10156-.15234-.10156-.35546-.30468-.45703-.15235-.0508-.40625-.10156-.5625-.0508-.50782 0-.86328.45703-1.1211.8125-.15234.10156-.20312-.10156-.30468-.15234-.25391-.0508-.40625.10156-.60938.20312-.15625-.15234-.15625-.15234-.15625-.15234-.10156-.20313 0-.40234.0547-.55859.30469.0508-.0547.15625 0 .30468.0469.10157.14844.15235.2539.15235.0508-.10157.10157-.20313.10157-.30078 0-.10547.0508-.3086-.15235-.40625.0508-.25782.15235-.5586 0-.76563-.66406-.30469.20313-.75781-.10156-1.26953-.10156-.15234-.35937-.19922-.51172-.40625-.0508-.15234.15235-.25.20313-.40234.10156-.20313-.25391-.50782.0508-.66016v.0508c.20312-.10156.25781.20313.46094.15234.0508-.0508.10156-.0508.10156-.10156.20312-.10156.20312-.35547.2539-.50781.10157-.20313.3086-.20313.41016-.35547.15234 0 .30469-.10156.40625-.20312.0508-.10157.10156-.20313.0508-.35547-.0508-.10157-.20312-.25391-.35547-.20313-.20312 0-.15625.25391-.35937.25391-.10156-.0508-.0508-.15235-.20313-.20313-.2539-.10156-.30468-.35547-.30468-.55859-.10157-.20313 0-.35547.15234-.50781.10156-.20313.15234-.40625.0508-.60938.0508-.0508-.0508-.10156-.0508-.15234-.30859-.30469-.41016-.76172-.25391-1.21875-.0547-.10156-.15625-.15235-.25781-.20313-.30469.15235-.30469.40625-.45703.60938-.0508.50781-.60938.15234-.76563.50781-.10156.20313.0508.35547.15625.50781.35547.50782-.35937.5586-.51171.86328-.25391.35547-.20313.86329-.15235 1.26954-.0508.10156-.15234.2539-.30469.20312-.35937-.40625.0469-.86328.15235-1.26953.20312-.25391.0508-.60938.10156-.91406-.0508-.40625.55859-.5586.45703-1.06641-.40625-.40625.25781-.66016.20313-1.06641-.0508-.10156-.15235-.20312-.25391-.20312-.71484.66016-.76172 1.625-1.12109 2.48828-.30469.50781-.66016 1.06641-.45703 1.72656-.30469.40625-.41016.91407-.25782 1.42188-.0469.2539-.30468.35547-.45703.55469-.51172.40625-.20312 1.17187-.76562 1.57421-.25391.25391-.71094-.0508-1.01563.20313-.20703.41016-.5625.76172-.41015 1.26953-.30469.30469-.40625.66016-.61329.96484-.2539.10157-.45703.30469-.66015.50782-.10156.45703-.61328.35547-.86719.66015-.20312.25391.15234.50782.25391.71094-.0508.10156-.15235.15234-.20313.20313-.61328.0508-1.17187-.25391-1.67969.15234-.25781.30469-.35937.86328-.8164.91406 0 0-.0508-.0508-.0508-.0508-.0508-.0508-.10157-.0508-.15625 0-.0469-.0508-.0469-.10156-.10157-.15234-.0508 0-.10156 0-.10156.0508-.0508-.0508-.0508-.0508-.0508-.0508.10156-.10157.15234-.20313.20703-.30469.0469-.10156.0469-.20313 0-.30469-.10547-.20312-.35937-.15234-.51172-.20312-.40625 0-.40625.55859-.71093.60937-.25782-.2539-.46094-.55859-.81641-.45703-.25781.0508-.51172.20313-.61328.45703 0 .40625-.25391.66016-.45703.91406-.25782.0508-.46094.20313-.66407.30469-.10156.15235-.20312.0508-.2539-.0508 0-.20312.30469-.25391.40625-.40625.10156-.10156 0-.25391-.10156-.35547-.30469-.15234-.5586.15235-.81641.30469-.15234.10156-.25391-.0508-.35547-.10156-.35547-.40625-.81641.0508-1.17187.0508-.30469-.30469-.5625-.66016-.96875-.8125-.25391-.0508-.45704 0-.66016.10156-.51172.25391-.25781-.40625-.5625-.50781-.20313 0-.35938-.10156-.51172 0-.0508.10156-.15234.20312-.15234.35547.10156.2539.20312.60937.15234.91406.25781.30469.51172.66016.91797.76172.66406-.15235.96875.45703 1.37891.86328.50781-.0508.91406.50391 1.47656.25391.45703-.25391 1.07031-.15235 1.47656-.10157.20703.10157.30859.35157.41016.5586.15234.0508.30468.10156.45703.10156.2539-.0508.50781-.10156.61328-.30859.0508-.19922.15234-.50391.40625-.60547.0508.0508.10156.10156.10156.20312-.15234.25391-.45703.45703-.35547.8086.0508.0547 0 .20703.15235.20703.2539.20312.45703.45703.51172.80859.10156.25391.35546.25391.50781.40625.50781.15234 1.12109.15234 1.52734-.15234.15625-.0469.35938-.15235.51172 0 .10156.45703.55859.71093.86719.96484.15234.20313.10156.50781.20312.71094.71094.55859-.15625 1.42187.66407 1.92969.30468.40625-.10547 1.16796.50781 1.42187.15234 0 .35547-.20312.50781-.0508.0508.45703-.60937.55859-.96875.71094-.60937.30468-.71094.96484-.71094 1.52343.10157.45704.60938.40625.91797.50782.25391.15234.45703.35156.71094.2539.25781-.15234.35937-.50781.41016-.76172.0508-.10156.20312-.20312.40625-.20312.51171.35547-.20313.71094 0 1.11719.10156.19922.30468.30468.51171.2539.8125.50391-.10156 1.26953-.15625 1.875-.0508.15235-.0508.35547.10157.45703.46093.15235.66406-.30468.91797-.55859.30468-.10156.51171.25391.8164.15234.35547-.19921.30469-.60937.45703-.86328.10547-.45312.5625-.30078.81641-.5039.35937-.40625.71484-.91407 1.27344-.86719.30859.15625.61328.46094 1.01953.35937.51172 0 .8164-.66015 1.42969-.40625.30468-.10546.45703-.45703.71093-.66015.41016.15234.71485-.40625.91797-.60938.10156-.0508.25781 0 .30469-.0508.20703-.15234.30859.10156.41016.20313.20312.15234.45703.0508.66015.0508.0508-.10156.15235-.20313.25781-.25391.10157.0508.25391.0508.35547.20313.20313.55859.81641.35547 1.375.40625.3086.15234.20703.50781.41016.75781h.0508c.15234.10547.15234.10547.15234.10547.50782-.0508.40625.55859.81641.76172.35547.0976.50781-.3086.91406-.20313.46094.35547-.35547.35547-.2539.76172.0508.0977.0508.25.15234.35156.30859.15235.46094-.60547.76563-.19922.0508.35157.46093.5586.71484.75782.71094.20312.35547.96484.50781 1.47265.15235.40625.5625-.0508.86719.10157.5625.20312.15234.86328.40625 1.26953.25781.40625.76562.20312 1.17578.2539.10156.0508.10156.15235.14844.25391.15625.15234.30859.25391.51172.25391.51172 0 .35547-.5586.66406-.76172.0508.0508.15234.0508.20312.10156.0508.20312-.20312.25391-.2539.40625-.0508.20312-.20313.40625-.0508.60937.30468.15235.45703-.20312.66015-.20312.3086.25391 0 .71094.20313.96484.10547.35547.51172.30469.71484.50782.46094.15234.20313.76171.5625 1.0664.10156.15235.35547.0508.5586 0 .0508.0508 0 .15235 0 .20313-.10157.30468 0 .50781.20312.71093.10156.10157.25781.0508.35938-.0508.15234-.20312-.15625-.45703.10156-.60937.0508.0508.15234.0508.20312.10156.10157.10156-.0508.20313 0 .25391-.20312.71093.76563.66015.71485 1.32031.2539.30469-.20703.50781-.15235.80859.25391.35547.66016.60938.96485.96485.10156.0508.15234.20312.15234.35547.10547.35546.5625.2539.81641.50781.10156.0508.10156.2539.10156.35547-.10156.10156-.20313.20312-.35547.2539 0 .0508-.0508.15235-.0508.25391.0508.40625.50781.15234.76562.25391.0977 0 .20313.10156.15235.20312.10156.15234.20312.25391.35547.30469zm-38.42578-.60938c.10156-.10156.20312-.15234.2539-.2539.10156-.15235.0508-.35547-.0508-.50782-.15625-.10156-.30469.10157-.41016.20313-.0508.10156-.20312.25391-.0508.40625 0 .10156.15625.15234.25782.15234zm37.10156-.45703c.10156-.10156.10156-.2539.10156-.40625-.0508-.0508-.15234-.15234-.25391-.10156-.20312.10156-.25781.30469-.25781.50781.15625.10156.3086.0508.41016 0zm2.39453-1.42187c.0508-.10157.10156-.25391.10156-.40625-.15234-.25391.0508-.45703.0508-.71094 0-.30078-.10156-.55469-.30468-.70703-.30469-.0508-.46094.30469-.61329.50781-.40625.50391.15235.96094.20704 1.41797.15234.15234.40625.0508.55859-.10156zm-36.69531-.10157c.20312 0 .40625-.0508.5625-.15234.35547-.30469.96484-.15234 1.32422-.55859.10156-.15235.15234-.30469.10156-.45313-.0508-.2539-.30469-.35547-.46094-.45703-.15234-.10156-.40625-.0508-.40625-.30469-.25391-.30468-.30469-.76172-.25391-1.16797.10157-.0508-.0508-.15234 0-.20312-.10156-.15234-.2539-.25391-.40625-.30469-.10156.0508-.20312.20313-.30859.25391-.25391.15234-.40625-.0508-.66016-.0508-.0547-.15235-.25781-.15235-.46093-.15235-.0508.10157-.10157.0508-.15235.0508-.55859.10157-.45703.71094-.60937 1.11719-.41016.20313-.76563.5586-.81641 1.01563.0508.35156.10156.65625.40625.85937.25391.25391.66406.20313.96875.15235.40625-.60938.81641.15234 1.17188.35546zm-2.64844-.55859c.25391-.20312 0-.45703-.0508-.70703-.10156-.10156-.20313.0508-.3086.0508-.0508.0977-.10156.25-.0508.40234.10157.15235.30469.15235.41016.25391zm6.11328-1.82422c.20703.0508.46094-.0508.61328-.10156.20313-.15234.5625.0508.71485-.25391.10156-.0508.15234-.15234.15234-.30468-.15234-.30469.0508-.76172-.20313-1.01563-.20703-.15234-.41015 0-.5625.0508-.10156 0-.30468.10156-.35546-.0508-.41016-.0508-.20704-.60937-.66407-.71094-.20312-.10156-.30468-.35547-.30468-.60937.2539-.30469.2539-.66016.20312-1.01563.0508-.30468.50781-.55859.20313-.86328-.10157-.0508-.25391-.0508-.35547 0-.20313.0508-.30469.45703-.5625.25391-.0508-.20313.15234-.35547.25781-.50781.45703-.25391.8125-.71094.91406-1.21875 0-.0977-.10156-.15235 0-.20313.20313.0508.35938-.15234.51172-.20312.35547-.10157.55859.2539.86719.10156.45703-.20313.40625-.71094.66015-1.01563.15235-.0469.3086 0 .46094.0508.25391 0 .5586-.0508.71485-.30468.0469-.30469.0469-.66016-.15625-.91016-.15235-.25391 0-.46094 0-.71094-.15235-.2539-.15235-.76172-.5586-.71093-.30859-.10157-.41015.15234-.61328.30468-.0508.20313-.0508.25391 0 .40625-.0508.30469-.20312.71094-.55859.76172-.25782.35547-.46094.70703-.66407 1.01172-.35546.25391-.8164.45703-.86718.91406-.10157.0508-.20313.10157-.30469.0508-.40625.25391-.55859.76172-.96875 1.01563-.15234.25391-.15234.50781-.10156.76172-.0508.30469-.35547.35547-.5625.50781-.15235.25391-.25391.50781-.15235.76172.0508.35547.46094.60937.20313.96484-.25391.35547-.60938 0-.91406 0-.15235 0-.35938.10157-.46094.25391-.10156.20312-.10156.45703 0 .66016.20703.10156.41015.20312.61328.10156.40625-.30469.91797-.25391 1.375-.10156.30469.15234.30469.50781.51172.71093.40625.15235.66015.5586.76172.96485zm-.8125-.55859c.0508-.10156 0-.25391-.0508-.30469-.10547-.0508-.15234-.20312-.25781-.0508 0 .10156 0 .20312.0508.30469.10156 0 .15625.20312.25781.0508zm-.61328-.30469c.30469-.20312.20312-.40625.15234-.71094-.15234-.30468-.45703-.15234-.71093-.20312-.10547.10156-.25782.20312-.25782.35547.0508.10156.20313.2539.30469.20312.25781.0508.30859.35547.51172.35547zm31.44531-1.82812c.15235-.0508.10156-.15235.15235-.30469-.0508-.20313-.20313-.35547-.40625-.25391-.10157.0508-.0508.15235-.0508.25391.0508.15234.15235.30469.30469.30469zm-3.82031-1.92969c-.10156-.20313-.46094-.35547-.25781-.71094 0-.20312.15625-.35547.25781-.55859.10156 0 .10156.10156.20312.10156-.0508.45703-.10156.86328.15235 1.26953.0508.15234-.10156.30469-.0508.40625-.0508.0508-.0508.0508-.0508.0508v.0508c-.15235-.0508 0 .10157-.15235.10157-.30859-.10157-.0547-.45704-.10156-.71094zm2.03516-1.72656c.15625-.0977.20703-.25391.20703-.40625 0-.15235-.20703-.20313-.3086-.15235-.0508.10156-.15234.20313-.15234.30469.0508.10156.15234.25391.25391.25391zm-26.09375-.35547c.25781-.10157.30468-.35547.35937-.5586-.10156-.14843-.25781-.10156-.41016-.10156-.15234.15234-.0508.40625-.0508.60938 0 .0508.0508.0508.10157.0508zm5.8125-.60938c.20312.0508.40625-.0976.50781-.30469.20312 0 .35547 0 .51172.10157.20312.0508.30468-.15235.40625-.25391.10156-.30469.40625-.45703.35547-.8125-.20313-.50391-.50782.20703-.86329 0-.20703.0547-.35937-.19922-.61328-.15234-.15234.0547-.20312.20703-.15234.35937.20312.30078-.25391.50391-.25391.75781.10157.10157.0508.20704.10157.30469zm16.35937-2.07812c.20313.0508.20313-.25391.30469-.35547.0508-.15235 0-.30469-.10156-.45703-.20313-.10157-.30469.10156-.46094.19922-.14844.0547-.14844-.14844-.30469-.14844-.25391.2539-.25391-.30469-.55859-.20313-.10157.15235-.40625.0508-.40625.30469.15234.10156.30468.35547.45703.45313.40625.25781.2539-.35157.45703-.35157.0508.0977.20703.15235.15234.25391.0547.15234.25782.30469.46094.30469zm-1.63281-1.01563c.41015.15235.51172-.20312.76562-.40625.0508-.20312-.10156-.40625-.15234-.60937-.25391-.20313.0508-.45703-.0508-.76172-.0508-.15235-.25391-.20313-.35547-.30469-.0547-.0508-.0547-.15234 0-.20312.0508-.15235 0-.30469-.10156-.40625-.15625-.10157-.35938-.15235-.51172-.15235-.20313-.0508-.10156-.30469-.35547-.35547-.41016-.15234-.51172.35547-.86719.40625-.35547.0508-.5625-.35547-.91797-.15234-.0508.0508-.10156.10156-.10156.20312-.0508.0508.0508.20313.0508.30469.45703.30469.25391.71094.25391 1.16797.0508.10156.10156.25391.25781.30469.25391.0508.40625-.25391.60938-.40625.0508 0 .10156.10156.15234.15234 0 .35547-.45703.60938-.20313.96485.10157.0508.25391.10156.35547.0508.41016-.35547.81641.10156 1.17188.20312zm-17.27735-2.4375c-.10156-.30469.25782-.60937.10157-.91406.41015.30469.76562-.30469 1.07031.15234.10547.10157.15234.25391.10547.40625-.15625.40625-.5625.45703-.91797.60938-.15625-.0508-.35938-.0508-.35938-.25391zm10.44922-1.625c.0508-.15234-.0508-.40625.20313-.40625.0508-.10156.0508-.10156.0508-.10156.25391.0508.61328-.20313.71484.15234.0508.20313-.0508.35547-.10156.45703-.20312.30469-.46094.10157-.71484.10157 0-.10157-.10157-.10157-.15235-.20313zm.20313-1.42187c.15234-.10157.25781-.25391.25781-.45703 0-.15235-.20703-.25-.35937-.30469-.15235.0547 0 .15234 0 .2539.10156.15235-.10157.25391-.15235.40625.0508.15235.20313.10157.25391.10157zm-4.48438-.35547c.10157-.15235.30469-.15235.35938-.30469 0-.45312-.41016-.55859-.61328-.85937-.0508 0-.10157.10156-.10157.19921-.15234.15235 0 .45704-.0508.66016.15235.0508.20313.30469.40625.30469zm5.40235-.15235c.2539-.10156.40625-.40625.5625-.66015.0469-.0977.15234-.30469-.0547-.40625-.0469-.25.25781-.40235.41016-.50391-.0508-.15234.0508-.25781 0-.40625-.0508-.15234-.25391-.30469-.41016-.25781-.20313.15234-.35547.40625-.25391.61328-.15234.25-.45703.40234-.50781.65625.10156.30469 0 .55859 0 .86328.10156-.0508.10156.10156.25391.10156zm1.07031-1.0664c.10156-.15235.0508-.30469-.10156-.35547-.15235 0-.15235.15234-.30469.20312.0508.15235.25391.3086.40625.15235zm-17.73438-1.26953c.0508-.35157.0508-.35157.0508-.35157.2539-.10546.20312-.35937.45703-.45703.15234-.2539.20312-.8125.66406-.76172.15234 0 .20312.15235.35547.25391.2539.15234.71484.20313.76562.55859-.0508.40625-.46093.45313-.71484.5586-.40625.0469-.91797.0469-1.17188.45312-.15234-.0976-.35546-.0469-.40625-.2539zm-.41015-2.02735c0-.30468-.0508-.71093.30859-.86328.30469.25391 0 .60938 0 .96485-.10547.10156-.25781.0508-.30859-.10157zm6.01562-.35547c-.0508-.20312.10157-.35546.25391-.45703.30469-.15234.66406-.20312.86719-.55859 0-.15234.15234-.30469.0508-.45703-.10156-.10156-.15235-.25391-.30469-.20313-.15625-.10156-.30859 0-.46094 0-.0508 0-.10156.15235-.20312.0508-.15235-.15234-.10156-.40625-.0508-.60937.0508-.15234.30468-.20313.30468-.40625.25391-.0508.41016-.20313.5625-.40625.20313-.60938-.51171-1.16797-.0508-1.82813.10157.0508.15235-.10156.20313-.15234.91797-.0469.76562 1.01563.96875 1.52344.2539.2539.50781.55859.8164.60937.35547.20313.40625.66016.45704 1.06641 0 .35547-.25391.66016-.5586.86328-.20703.0508-.35937.15234-.5625.15234-.2539-.30468-.45703-.20312-.76562-.20312-.50782.30469-.76172.8125-1.22266 1.11719-.15234.0508-.30469.10156-.30469-.10157zm-15.03515-.45703c.20312.0508.30468-.15234.35547-.2539-.0508-.15235.10156-.50782-.15235-.60938-.2539-.10156-.40625.10156-.61328.20313-.10156.0508 0 .15234 0 .20312.15625.15235.30859.30469.41016.45703zm16.20703-1.11718c-.10156-.50782.30469-.91407.5625-1.32032.10156-.0508.20312-.2539.40625-.15234.10156.15234.10156.30469.10156.45703 0 .25391-.30469.20313-.30469.40625.0508.20313.10157.45703-.0508.55859-.10547.10157-.15234.20313-.25781.20313-.15234-.0508-.35547.0508-.45703-.15234zm16.66406-.8125c.15625-.20313.46094-.35547.35938-.66016.10156-.0508.15234-.20313.30468-.15234.10157-.15235.30469-.0508.35547-.25391 0-.15234.0508-.25391 0-.35547-.0508-.25391-.30469-.15234-.50781-.15234-.10156-.10157-.25391.10156-.30859-.0508-.0469-.10157 0-.25391.0547-.35547-.10156-.15235.10157-.25391.20313-.40625.15234.15234-.15625.2539 0 .35547.10156.0508.2539.0508.30469-.0508.0508-.0508.10156-.15234.10156-.20312-.15235-.10156-.20313-.20313-.40625-.20313.0508-.10156.20312-.19921.35547-.30468.66406.2539.41015-.5586.86718-.70703.40625-.41016 1.1211.0976 1.42579-.35938.10156-.25391-.15235-.40625-.20313-.60547.30469-.20312.76563-.0508.91797-.40625-.0508-.41015.35547-.71094.66016-.91406.20703-.15234.25781.15234.46093.15234 0 .0508.0508.15235-.0508.20313-.20312.0508-.20312-.25781-.46094-.20313-.0508.20313-.2539.25391-.40625.30469 0 .15234 0 .25391.10157.35156.10156 0 .20312-.0469.30468-.15234.10547.0547.20704-.0977.3086 0 .35547.10547.40625-.40625.66015-.45313.20704.10157.35938-.15234.61329-.15234.20312.10156.30468.30469.45703.40625.15234.0469.30468 0 .41015-.0508.20313-.0508.10157.20312.20313.30469.15234.0976.30469.0508.45703.0976.15625 0 .30859-.0469.41016-.15234.10156-.19922.20312-.35156.10156-.55859.0508-.0977-.0547-.30079.10156-.35157 0-.0508 0-.0508 0-.0508.15234-.30469.66406-.30469.71094-.66015.0547-.0508.15625-.15235.20703-.10157.0508.10157-.10547.15235-.10547.20313-.0469.10156-.0469.2539 0 .35547.10547.10156.25781.10156.35938.10156.35546-.10156.66406-.20313.91796-.35547.15235-.20312.10157-.45703.10157-.71094 0-.10156.10156-.15234.20312-.10156.15235 0 .20313.15234.30469.25391.30859-.20313.35937.30468.66406.15234.20313-.10156.50781-.15234.50781-.45703-.0469-.10156-.15234-.15234-.2539-.15234-.20313 0-.30469.2539-.45703.2539-.0508-.0508.0508-.0508 0-.10156.15234-.25391.45703-.25391.71093-.25391.15625.0508.15625.0508.15625.0508.20313-.0508.40625-.10156.50782-.30468.2539-.0508 0-.40625.10156-.5586.30469-.2539.41016-.55859.30469-.91406-.20313-.25391-.20313-.66016-.66016-.71094-.10156.0508-.15234.15235-.25391.15235-.15625 0-.15625.10156-.20312.20312-.0547.0508-.15625.10156-.25781.10156-.10157-.20312.10156-.40625.20312-.60937 0-.20313.0547-.40625-.20312-.55859-.15235-.0508-.20313-.0508-.50782 0-.25781.10156-.61328.0508-.86718.15234-.5586.55859-1.32422.60937-2.08985.71094-.20312.0508-.30468.20312-.30468.40625-.25391.55859-.86719.10156-1.22266.40625-.35938.20312-.61328.50781-.81641.8125-.0508.20312-.35937.20312-.51172.40625-.10156-.15235-.35546-.10157-.55859-.10157-.20312.10157-.30469.30469-.46094.45704-.2539.0508-.30468.35546-.55859.35546-.25391.35547-.40625-.15234-.71484-.10156-.25391.15235-.61329.20313-.86719.40625-.10156 0-.15235 0-.25391-.0508-.55859 0-1.07031.35547-1.6289.15234-.46094.0508-.86719-.20312-1.27735-.0508-.35547 0-.66015.10157-.91406.25391-.20703.0508-.41016.20312-.61328.10156-.60938.0508-1.27344.20313-1.9375.10156-.40625-.15234-.86328-.0508-1.22266.20313-.15234.10156-.40625-.10156-.50781.10156-.15625.10156-.0547.40235-.30859.35547 0-.0508-.10157-.10156-.0508-.15234.0508-.20313.15625-.40625.0508-.5586-.15235-.30468-.50782-.10156-.71094-.10156-.20313-.10156 0-.35547-.15235-.50781-.0508-.15235-.25781-.20313-.41015-.20313-.15235.10157-.30469.25391-.25391.45703.15235.20313.40625.35547.66406.40625.20313.10157.10157.40625.10157.60938.15234.0977-.0508.30469.15234.40625.0508.15234.20313.15234.25391.30469.15234.0508.15234.0508.15234.0508s.0508.0469.0508.10156c.0508.0508.15235.0977.30469.0977.20703-.0977.35937-.15235.46094-.35157.0508 0 .0508-.0508.0508-.10546.0508-.25391.41015-.25391.61328-.25391.10156.0547.20312.15625.20312.25391-.0508.10546-.10156.20703-.25781.20703-.71094.15234-1.07031.75781-1.57812 1.21484-.35547.0547-.20313-.30469-.40625-.45703-.10157 0-.25391.0508-.35938.15234-.10156-.0469-.2539.0508-.30469-.10156-.0508-.25.0508-.50391.0508-.75781 0-.20313.0508-.45703-.20313-.5586-.15234 0-.35937.10157-.40625.25391-.15625.30469-.61328.25391-.66406.55859-.15235.10157-.25391.35157-.45703.35157-.15625-.15235-.46094-.15235-.5625-.35157-.30469.0469-.15235-.35937-.40625-.35937-.15625-.0469-.35938-.0469-.41016.0547-.15234.15234-.0508.35156 0 .5039-.15234.15235-.35547.10547-.45703.25391-.15234.15234-.35547.30469-.45703.45703 0 .20703-.20703.30469-.20703.50781.0508.15235.20703.20313.35547.20313.35937-.25391.71484-.50391 1.12109-.5586.30859.10157.5625.20704.76562.40625.46094.15235.5625.66016.91797.96485.0508.15234.35547.2539.30469.40625.20313.2539-.40625.30469-.25391.60937.10157.20313.30469 0 .51172.0508.20313-.10156.50782-.0508.66016.0508.20703-.0508.30859.10156.46094.10156.15234-.0508.2539-.20313.35547-.35547.10156-.20313.15234-.45703-.0508-.66016.10157-.35547.30469-.60937.50782-.91406.0547-.15234 0-.35547.10156-.45312.30859-.45704.81641-.71094 1.42969-.66407.0508.15235.15234.25391.2539.35938.10157.19922.30469.15234.46094.0976.25391-.20312.50781-.40625.50781-.71093.20313-.25.40625-.40625.71485-.30469.60937.10547.15234.66406.2539.91797.15235.25.30469.5039.60938.55859.15234-.0547.25781-.0547.35937-.15625.15235-.15234.15235-.35547.0508-.50781.0508-.10156.20313-.0469.30469-.10156.0508.0547.10156.15234.0508.20703-.10156.19922.25391.30469.35547.45312.15625.30469-.40625.30469-.45703.60938-.0508.2539.10156.40625.30469.55859v.15235c-.0508.10156-.15235.10156-.30469.10156-.25391.15234.15234.35547-.10156.50781-.0508.15234 0 .35547.10156.40625.20313.15234.25391-.10156.35547-.15234.0547-.25391.35937-.25391.61328-.30469.0508.0508.10156.15234.15234.25391.35547.0508.0508.2539.15235.40625-.10156.10156-.20313.15234-.25391.2539-.0508.10156-.10156.30469 0 .40625s.20313.15235.35547.15235zm-5.70703-2.6875c.0508-.20704 0-.40625-.0508-.5586-.15235 0-.20313-.2539-.30469-.15625-.15234.25391-.51172.45703-.30859.76172.10156.35547.51172.20313.66406-.0469zm5.09766-1.82813c-.15235 0-.20313-.15234-.35547-.15234-.10547-.3086.10156-.71094-.10547-.96485.10547-.30468-.45703-.0547-.30469-.40625.10156-.40625.51172.40625.76563-.20312.55859-.35547.55859-.35547.55859-.35547.15234.0508.46094.15234.51172.40625-.15625.30469-.61328.50391-.51172.86328.0508.10156.15234.10156.25391.15234.25781.0469.20703-.30468.35937-.35937.10156-.0977.20313-.19922.30469-.19922.15234.0469.0508.15234 0 .19922-.5625.25391-.25391.86719-.60938 1.21875-.30859-.10156-.66406.10547-.86718-.19922zm8.66406-4.16406c0-.15235.20312-.15235.35547-.20313.2539-.15234.35547-.55859.71484-.30468.0508 0 .0508-.0508.0508-.0508 0-.10156 0-.10156 0-.10156.40625-.0508.71485-.45703.96875-.76172.25391-.20312.40625-.60937.76172-.55859.20703.20312.30859.45703.25781.76172-.15234.20312-.25781.50781-.5625.55859-.10156.20313-.30468.0508-.40625.30469-.25781 0-.46093.20312-.76562.15234-.40625.10157-.81641.0508-1.17188.30469-.0508 0-.30468.10156-.20312-.10156zm-20.58985-2.64063c.20313-.0508.15235-.30468.15235-.45703-.25781 0-.25781 0-.25781 0-.10157.10156-.14844.25391-.14844.35547.0469.10156.14844.10156.2539.10156zm25.125-.15234c.20313.10156.30469-.10156.45704-.20313.10156-.0508.20312-.15234.25781-.2539 0 0-.0547-.0508-.10156-.0508.0469-.0508.0469-.10157.0469-.0508 0-.0508 0-.0508 0-.0508-.20312-.15234-.40625.0508-.60937 0-.30469.10157-.30469.40625-.40625.66016.10156.0508.30468.0508.35546-.0508zm-25.83984-.50781c.0508-.35547.25391-.76172.20313-1.16797.10156-.20313.35937-.30469.40625-.50391.20703-.40625-.35547-.51172-.35547-.91797.10156-.0976.15234-.19922.2539-.30468-.0469 0-.0469 0-.0469 0 .0469-.0469.0469-.10157.10156-.0469-.0547-.10156-.0547-.10156-.0547-.10156.20703-.25781.41016-.60938.25782-.86328-.30469-.0508-.51172.30468-.71485.55859-.0508.30469-.20312.66016-.50781.75781-.10156.15235-.10156.3086-.0508.46094-.15235.30469-.20703.71094 0 1.01563.2539.35156-.20703.60546 0 1.01171 0 .20313.40625.35547.50781.10157zm0 0" fill="#ae000a"/></g><use fill="#fff" height="100%" width="100%" x="262.66858" xlink:href="#f" y="484.17999"/><use fill="#fff" height="100%" width="100%" x="362.58484" xlink:href="#f" y="484.17999"/><use fill="#fff" height="100%" width="100%" x="418.85001" xlink:href="#f" y="484.17999"/></g></g></svg>