<svg width="168" height="64" viewBox="0 0 168 64" fill="none" xmlns="http://www.w3.org/2000/svg"><path d="M70.111 22.841h-3.065v-.382h.958v-6.296h-2.107v.764h-.575V15.21h.575v.381h5.363v-.381h.575v1.717h-.575v-.764h-2.107v6.296h.958v.382zm10.153 0h-2.682v-.381h.767v-3.053h-4.023v3.053h.766v.381H72.41v-.381h.958v-6.487h-.958v-.382h2.682v.382h-.766v2.862h4.023v-2.862h-.767v-.382h2.682v.382h-.957v6.487h.957v.381zm5.94 0h-4.981v-.382h.766v-6.486h-.766v-.382h4.406v-.381h.383v1.717h-.383v-.954h-2.682v2.861h2.107v-.763h.575v2.099h-.575v-.763h-2.107v2.862h2.682v-.954h.575v1.526zm10.919-6.868h-.767v4.197c0 1.145-.383 1.908-1.34 2.48-.384.192-.958.382-1.533.382-1.533 0-2.874-1.145-2.874-2.48v-4.579h-.766v-.382h2.682v.382h-.766v4.197c0 1.336.766 2.29 2.107 2.29 1.34 0 2.107-.954 2.107-2.29v-4.197h-.766v-.382h2.299v.382h-.383zm6.895 6.868h-.383l-4.214-5.723v5.342h.766v.381h-2.299v-.381h.958v-6.105l-.383-.382h-.766v-.382h1.724l4.023 5.533v-5.15h-.958v-.383h2.299v.382h-.767v6.868zm4.214 0h-2.682v-.381h.766v-6.487h-.766v-.382h2.682v.382h-.766v6.487h.766v.381zm4.406.191h-.383l-2.682-7.059h-.766v-.382h2.873v.382h-1.149l2.107 5.342 2.107-5.342h-.574v-.382h1.724v.382h-.383l-2.874 7.06zm9.004-.191h-4.98v-.382h.766v-6.486h-.766v-.382h4.406v-.381h.574v1.717h-.574v-.954h-2.682v2.861h2.107v-.763h.575v2.099h-.575v-.763h-2.107v2.862h2.873v-.954h.383v1.526zm2.873-3.815h1.15c.766 0 1.341-.573 1.341-1.527s-.575-1.526-1.533-1.526h-.958v3.053zm4.598 3.816h-.958c-.575 0-.766 0-1.149-.573l-1.724-2.67h-.767v2.86h.767v.383H122.6v-.382h.766v-6.487h-.766v-.382h3.065c1.149 0 1.724.382 2.107.954.192.382.192.573.192.954 0 1.145-.575 1.718-1.725 1.908l1.533 2.48c.192.382.383.573.766.573h.383v.381h.192zm1.34-.001h-.574v-1.908h.574v.954c.767.382.958.572 1.533.572.958 0 1.533-.381 1.533-1.144 0-.573-.384-1.145-1.533-1.717-1.341-.764-1.916-1.336-1.916-2.1 0-1.144.958-1.907 2.108-1.907.574 0 .957.19 1.341.382v-.764h.574v1.908h-.574v-.763c-.575-.381-.767-.572-1.341-.572-.767 0-1.15.381-1.15 1.145 0 .572.383.954 1.724 1.717 1.341.763 1.724 1.335 1.724 2.098 0 1.145-.957 2.1-2.107 2.1-.766 0-1.149-.192-1.724-.573v.572h-.192zm7.664 0h-2.682v-.381h.958v-6.487h-.958v-.382h2.682v.382h-.767v6.487h.767v.381zm5.555 0h-3.257v-.382h1.149v-6.296h-2.298v.764h-.383V15.21h.383v.381h5.555v-.381h.383v1.717h-.383v-.764h-2.299v6.296h1.15v.382zm6.896 0h-2.49v-.381h.766v-3.053l-2.299-3.434h-.574v-.382h2.681v.382h-.957l1.915 2.862 1.724-2.862h-1.149v-.382h2.299v.382h-.575l-2.107 3.434v3.053h.766v.381zm5.938-3.625c0 1.908.958 3.244 2.49 3.244 1.341 0 2.49-1.336 2.49-3.244 0-1.908-.957-3.243-2.49-3.243-1.532 0-2.49 1.335-2.49 3.243zm-1.15 0c0-2.099 1.533-3.816 3.64-3.816 1.916 0 3.448 1.717 3.448 3.816 0 2.099-1.532 3.816-3.448 3.816-2.107-.19-3.64-1.908-3.64-3.816zm10.346 3.625h-2.491v-.382h.766v-6.486h-.766v-.382h4.406v-.381H168v1.717h-.383v-.954h-2.682v2.861h2.107v-.763h.575v2.099h-.575v-.763h-2.107v3.052h.767v.382zM66.664 46.31h-1.341v-5.152h1.34v2.29c1.725 1.145 2.491 1.526 3.832 1.526 2.299 0 3.831-1.145 3.831-3.052 0-1.718-1.15-2.862-4.214-4.58-3.64-1.907-4.98-3.434-4.98-5.723 0-2.862 2.49-4.96 5.746-4.96 1.532 0 2.49.19 3.448.763v-.954h1.341v4.96h-1.34V29.33c-1.533-.954-2.3-1.335-3.449-1.335-1.916 0-3.257 1.145-3.257 3.053 0 1.526.767 2.289 4.406 4.388 3.64 2.098 4.598 3.434 4.598 5.723 0 3.053-2.49 5.342-5.747 5.342-1.916 0-3.065-.381-4.406-1.335v1.145h.192zm23.37-.19h-6.896v-1.145h2.107v-7.823l-5.938-9.158h-1.724V26.85h7.088v1.144h-2.49l4.98 7.632 4.597-7.632h-2.682V26.85h5.747v1.144h-1.34l-5.748 9.158v7.823h2.3v1.144zm11.111-1.527h3.448c4.022 0 7.087-3.434 7.087-8.204 0-4.579-3.065-8.204-6.896-8.204h-3.639v16.408zm-4.79 1.526v-1.144h2.108v-16.98h-2.107V26.85h8.62c5.172 0 9.578 4.388 9.578 9.54 0 5.341-4.214 9.538-9.578 9.538h-8.62v.191zm34.865.191h-.766l-11.302-15.263v13.928h2.298v1.144h-5.938v-1.144h2.299V29.139l-.767-1.145h-2.107V26.85h4.215l10.727 14.69V27.994h-2.299V26.85h5.939v1.144h-2.299V46.31zm17.432-.192h-13.217v-1.145h2.298v-16.98h-2.298v-1.145h11.685v-.763h1.341v4.579h-1.341v-2.48h-6.896v7.44h5.555v-2.098h1.341v5.724h-1.341v-2.29h-5.555v7.822h7.088v-2.67h1.34v4.006zm14.559.002h-6.896v-1.145h2.107v-7.823l-6.13-9.158h-1.532V26.85h7.088v1.144h-2.682l5.172 7.632 4.597-7.632h-2.682V26.85H168v1.144h-1.532l-5.555 9.158v7.823h2.298v1.144zM27.202 25.704c9.578 0 19.73 1.526 22.221 1.908v3.625c0 1.335-.192 2.862-.383 4.197H32.566V26.85c-1.725 0-3.449-.191-5.364-.191-1.724 0-3.448 0-5.364.19v8.586H5.364c-.192-1.335-.383-2.67-.383-4.197v-3.625c2.49-.382 12.643-1.908 22.22-1.908zm23.37-17.171-.383-.19S38.312 4.716 27.393 4.716c-11.302 0-22.987 3.625-22.987 3.625l-.383.19v22.896c0 13.355 10.153 25.375 23.179 25.375 13.026 0 23.179-12.02 23.179-25.375V8.533h.191zm4.023-1.908V24.75c0 16.408-11.11 33.007-27.202 36.25C11.685 57.947 0 40.967 0 24.75V6.625S13.6 3 27.202 3c15.9 0 27.393 3.625 27.393 3.625zM44.251 46.691c-.383.572-.766 1.145-1.341 1.526-2.873 3.244-6.513 5.533-10.536 6.678v-8.967h10.344c.767.19 1.341.381 1.533.763zm-32.566-.573H22.03v8.968c-4.023-1.145-7.663-3.435-10.536-6.678-.383-.572-.958-.954-1.341-1.526.383-.573.958-.764 1.532-.764zm19.923-13.546-2.299.954 1.15 2.29-2.3-1.145-.766 2.29-.766-2.29-2.299 1.145 1.15-2.29-2.49-.954 2.298-.763-1.15-2.29 2.3 1.146.766-2.29.766 2.29 2.299-1.145-1.15 2.29 2.49.762zm11.685 7.441 2.299.763-2.299.763 1.15 2.29-2.3-1.145-.766 2.29-.766-2.29-2.299 1.145 1.15-2.29-2.299-.763 2.299-.763-1.15-2.29 2.3 1.145.765-2.29.767 2.29 2.298-1.144-1.149 2.29zM24.328 10.632s.192-.191.384-.191c.383 0 .574.19.574.572 0 .19 0 .382-.191.382h-.192a2.636 2.636 0 0 0-.575-.763zm-3.065 5.15c.192 0 .575-.19.575-.38-.192-.191-.766-.382-.766-.764l.191-.954c-.383 0-.574-.19-.574-.572-.192 0-.383-.19-.192-.382h.192c.191 0 1.34.191 1.34.191v.19s-.19 1.146-.383 1.527h1.15c0-.19-.383-1.526-.383-1.526s0-.19.191-.19c.575-.383.958-.383 1.341-.383s.192.191 0 .382h-.191c0 .382-.192.572-.575.572l.192.954c0 .382-.575.573-.767.764.192.19.384.381.575.381.383 0 .575-.382.575-.572 0-.191.383-1.336.574-1.527.384-.572-.191-2.48-.957-2.67-.192 0-.192-.382-.192-.382 0-.191.192-.191.383-.382.192-.19.575-.381.958-.381.575 0 1.15.572 1.15 1.144 0 .382-.192.764-.575.954-.192.191.383 1.145 0 2.099 0 .572-.192 1.145-.383 1.526 0 .382-.384.764-.767.954 0 .191-.191.382-.191.382.574 0 1.34-.382 1.724-.954.191-.382.766.954 1.15.382.382-.764.574-1.336.765-1.908 0-.382.383.19.383 0 .192-.382.384-.954.384-1.336 0-1.717-1.341-3.243-3.065-3.625-.383 0 .383-.572 0-.572s-1.341 0-2.107.381c-.192 0-.192-.19-.575-.381h-.192c-.383.19-.383.381-.575.381-.766-.381-1.724-.381-2.107-.381-.383 0 .192.572 0 .572-1.724.382-3.065 1.908-3.065 3.625 0 .572.192.954.384 1.336 0 .19.383-.382.383 0 0 .954.191 1.335.574 2.098.383.573.958-.763 1.15-.381.383.763 1.149.954 1.724.954 0 0 .191 0 0 0 0 0-.192 0-.192-.191 0-.19 0-.382-.191-.382-.384-.19-.575-.572-.767-.954 0-.381 0-.954-.383-1.335a1.727 1.727 0 0 1 0-1.908c0-.19-.575-.382-.575-1.145 0-.572.575-1.145 1.15-1.145s.958.382 1.34.764c.192.19 0 .381-.19.381-.767.19-1.342 1.908-.959 2.671.192.191.575 1.336.575 1.527 0 .381.383.572.766.572zm-1.149-5.15c-.192.19-.383.381-.575.763h-.191c-.192-.191-.192-.191-.192-.382 0-.381.192-.572.575-.572.191 0 .383 0 .383.19.192 0 0 0 0 0zm3.065 5.723c-.383 0-.575-.19-.766-.381h-.192c-.191.19-.575.381-.766.381v.191c.192.382.575.19.958.382h.191c0-.191.384 0 .575-.573 0 .191 0 .191 0 0zm13.218-5.151c.191-.19.383-.19.575-.19.191 0 .191-.192 0-.192-.575-.381-1.15-.19-1.15-.19-.575.572-1.724.572-1.724.572.383.763 1.916.19 2.299 0zM18.39 17.118c.191 0 .575.191.575.191 1.149.573 1.915.573 2.49.382.192 0 .192.19.192.19-2.3 2.29-4.023 1.718-4.79 1.336-.383-.381-1.149-.381-1.724.19 0 0-.191.192-.191 0-.192-.38 0-.762.191-.953 0-.19-.191-.19-.191-.19-.383-.192-.575 0-.766.19-.192.19-.192-.19 0-.954.191-.572-.958-.763-1.15-.572-.383.381-1.15.954-2.107 0-.192-.191.383-.191.383-.382 0-.19.192-.381.383-.381v-.191c-.383-.191-.574-.382-.574-.954l-.384-.191c.767-.763 1.724-.19 2.108 0h.191c0-.19-.191-.382.383-.763 0 0-.191-.382 0-.382 1.724.382.958 2.099 1.341 2.48.575.191 2.108.764 3.64.954zm23.754-.953s.766-.382.958-1.145c.191-1.336-.958-1.908-1.916-2.29-2.107-.572-5.939-.19-6.896 0-.958 0-2.874.382-3.64.191-1.15-.19-1.341-.763-.958-1.335.575-.954 2.682-.764 2.874-.764 2.49.191 2.873-.954 4.214-1.144.191 0 0-.191 0-.191-.383-.382-1.341-1.336-3.065.19h-.192s-.191-.381.383-.763c.192 0 .384-.19.384-.19s0-.191-.192 0h-.575c-.766 0-1.149.763-1.149 1.144 0 0 0 .191-.192.191-.574 0-2.681.191-3.448 1.336-.191.19-.191.381-.383.572 0 .19 0 .572.192.954.191.382.574.572.958.763.957.382 2.873.382 4.022.191 3.448-.382 7.854-.572 8.046.572 0 .764-.958.573-.958.573s-8.237 0-12.643-.191c-.192 0-.192.19-.192.381-.191.764-.766 2.672-2.107 1.908 0 0-.191-.19-.191 0-.575.573-1.533.764-2.299.764-.191 0-.191.19-.191.19-.384.382-1.15 1.145-2.3 1.718-2.49 1.144-3.256 1.144-3.447.953-.192 0-1.341-1.144-2.108-.381-.191 0 .192.19.192.19-.192.382.383.764.575.955v.19c-.383.191-.767.573-.958 1.336v.19c.191 0 .383-.19.383 0 .383.573 1.15.192 1.533 0 0 0 .191 0 .191.192 0 .381.192.953.958.763.191 0 .191.19.191.381 0 0 .767 0 .383-1.526v-.382c.192-.19.384-.381.767-.381s.766.381 1.15.381c.19 0 .19-.19 0-.19-.192-.191-.192-.764.19-1.145h.192c.383.763 1.15.954 1.533 1.145.191 0 .191 0 .191-.191-.191-.382-.191-1.336.958-1.717.192 0 1.341-.573 1.533-.954.191-.191.191-.573 0-.764 0-.19 0-.19.191-.19.766.572 4.023 1.908 7.28-.573 1.724-1.526 3.448-1.144 3.83-1.144.384 0 0 .763.192 1.526.958 1.908 3.448.381 4.023.954.575.763-.191 2.29-.958 1.717-.766-.572-1.915-.19-2.107.382 0 .19.383 0 .383.19 0 .382.383.573.767.573.191 0 0 .19 0 .19-.384.191-.767.573-.575 1.336 0 .19.383-.19.575-.19.957.572 1.34 0 1.532-.382 0-.191.192-.191.192 0 .191.19.574.572.957.381.192-.19.383.573.575.191.383-1.145 0-1.526-.191-1.717-.384-.19.191-.954.574-.954.575 0 .958 0 1.15-.19.191-.192.191-.192 0-.382-.383 0-.575-.191-.575-.382 0 0 0-.19.192-.19.957.19.957 0 1.149 0 .191-.192.191-.192 0-.192-.192-.19-.383-.381-.383-.572 0-.381 1.34-1.335 0-1.335-4.023 0-1.724-1.718-1.724-1.718zm-5.172 3.625c-.384-.191-.575-.573-.767-1.145-.191-.191-.191-.573-.191-.763 0 0 0-.191-.383-.191-1.724.19-2.49 1.145-3.449 1.717-.191.19 0 .19 0 .19.384.192.767.192.767.382-.192.763-1.724 1.336-2.107 1.145-.192-.19-.958-1.335-2.108-.572-.191.19.383.19.192.381-.192.382 0 .573.191.763v.191c-.383 0-1.34.19-1.34 1.336 0 .19.383 0 .383 0 .191.572.957.19 1.34 0h.192c.192.19.766.572 1.341.381.192 0 .383.573.383.191.383-.572.383-.954.192-1.145v-.381c.191-.191.383-.191.766 0 .575.19.766.381 1.15.381.19 0 .19-.19 0-.381-.192-.191-.384-.382-.384-.573 0 0 0-.19.192-.19.383.19.575.19.766.19.192 0 .192-.19 0-.19-.191-.191-.191-.382-.191-.573v-.19c0-.191.191-.191.574-.191.958 0 1.533-.191 1.724-.573.958.191.958 0 .767-.19zM21.454 38.867h4.214v-.572h-4.214v.572zm0 1.718h4.214v-.573h-4.214v.573zm0 1.907h4.214v-.572h-4.214v.572zm3.257-5.723h.191c.958 0 1.724.763 1.724 1.717v5.724c-.383-.382-.766-.573-1.34-.573h-4.981V36.77h4.405zm-4.79 6.296h-.957v.763h.957v-.763zm0-1.908h-.957v.763h.957v-.763zm0-1.908h-.957v.763h.957v-.763zm0-1.908h-.957v.763h.957v-.763zm13.218.954h-4.406v.572h4.215v-.572h.191zm0 1.717h-4.406v.573h4.215v-.573h.191zm0 1.717h-4.406v.573h4.215v-.573h.191zm.958-4.96v6.868h-4.98c-.575 0-.958.19-1.341.573v-5.724c0-.954.766-1.717 1.724-1.717h4.598zm.575 6.868h.958v-.572h-.958v.572zm0-1.908h.958v-.572h-.958v.572zm0-1.908h.958v-.572h-.958v.572zm0-1.908h.958v-.572h-.958v.572zm-5.364 12.593 2.299-.764-2.299-.954 1.15-2.289-2.3 1.145-.766-2.29-.766 2.29-2.299-1.145 1.15 2.29-2.49.763 2.298.763-1.15 2.29 2.3-1.145.766 2.289.766-2.29 2.299 1.145-.958-2.098zM11.302 41.73l-2.299-.763 2.3-.763-1.15-2.29 2.298 1.145.767-2.29.766 2.29 2.299-1.145-.958 2.1 2.299.762-2.299.763 1.15 2.29-2.3-1.145-.766 2.29-.766-2.29-2.299 1.145.958-2.099z" fill="#fff"/></svg>
