<?xml version="1.0" encoding="UTF-8" standalone="no"?>
<!-- Generator: Adobe Illustrator 22.0.1, SVG Export Plug-In . SVG Version: 6.00 Build 0)  -->

<svg
   xmlns:dc="http://purl.org/dc/elements/1.1/"
   xmlns:cc="http://creativecommons.org/ns#"
   xmlns:rdf="http://www.w3.org/1999/02/22-rdf-syntax-ns#"
   xmlns:svg="http://www.w3.org/2000/svg"
   xmlns="http://www.w3.org/2000/svg"
   xmlns:sodipodi="http://sodipodi.sourceforge.net/DTD/sodipodi-0.dtd"
   xmlns:inkscape="http://www.inkscape.org/namespaces/inkscape"
   viewBox="0 0 778.1 140.5"
   width="778.09998"
   height="140.5">
<style
   type="text/css"
   id="style2">
	.st0{fill:#0F206C;}
</style>

<g
   id="g41"
   transform="translate(5,-51.8)"><g
     id="g18">
	<path
   id="path4"
   d="M 102.6,58.8 H 82 c 0,0 0,42.2 0,48.8 -6.4,0 -51.1,0 -57.5,0 0,-6.6 0,-48.8 0,-48.8 H 0 v 126.6 h 24.5 c 0,0 0,-49.3 0,-56.1 6.4,0 51.1,0 57.5,0 0,6.7 0,56.1 0,56.1 h 24.5 V 58.8 h -3.9"
   class="st0"
   inkscape:connector-curvature="0"
   style="fill:#0f206c" />
	<path
   id="path6"
   d="m 232.3,88.6 c -5.2,-10 -13,-17.9 -22.9,-23.5 -9.9,-5.5 -21.1,-8.3 -33.4,-8.3 -18.8,0 -34.3,6 -46.3,17.9 -11.9,11.9 -18,28.3 -18,49 0,10.9 2.6,21.5 7.7,31.3 5.1,10 12.8,18 22.7,23.7 9.9,5.7 21.3,8.6 33.8,8.6 11.5,0 22.4,-2.6 32.4,-7.8 10.1,-5.3 18.1,-13 23.6,-23.1 5.4,-10 8.2,-21.5 8.2,-34.1 0,-12.5 -2.6,-23.8 -7.8,-33.7 m -17,33.7 c 0,14.1 -3.7,25.1 -11.1,32.6 -7.4,7.6 -16.7,11.3 -28.3,11.3 -11.4,0 -20.6,-3.7 -28.1,-11.2 -7.4,-7.4 -11.1,-17.9 -11.1,-31.1 0,-16.6 3.9,-28.5 11.5,-35.3 7.9,-7 17,-10.4 28,-10.4 7.6,0 14.5,1.8 20.6,5.4 6.1,3.6 10.6,8.5 13.7,15.1 3.1,6.6 4.8,14.5 4.8,23.6 z"
   class="st0"
   inkscape:connector-curvature="0"
   style="fill:#0f206c" />
	<path
   id="path8"
   d="m 269.8,163.6 c 0,-7.2 0,-104.8 0,-104.8 h -24.5 v 126.6 h 86.4 v -21.7 c 0.1,-0.1 -55,-0.1 -61.9,-0.1"
   class="st0"
   inkscape:connector-curvature="0"
   style="fill:#0f206c" />
	<path
   id="path10"
   d="M 439.9,88.6 C 434.7,78.6 427,70.7 417,65.1 c -9.9,-5.5 -21.1,-8.3 -33.4,-8.3 -18.8,0 -34.3,6 -46.2,17.9 -12,11.9 -18,28.3 -18,49 0,11 2.6,21.5 7.7,31.3 5.1,10 12.8,18 22.8,23.7 9.9,5.7 21.2,8.6 33.7,8.6 11.5,0 22.4,-2.6 32.4,-7.8 10.1,-5.2 18.1,-13 23.6,-23.1 5.5,-10 8.2,-21.5 8.2,-34.1 -0.1,-12.5 -2.7,-23.8 -7.9,-33.7 m -17,33.7 c 0,14.1 -3.7,25.1 -11.1,32.6 -7.4,7.6 -16.7,11.3 -28.3,11.3 -11.4,0 -20.6,-3.7 -28.1,-11.2 -7.5,-7.5 -11.1,-17.7 -11.1,-31.1 0,-16.6 3.9,-28.5 11.5,-35.3 7.9,-7 17,-10.4 28,-10.4 7.6,0 14.5,1.8 20.6,5.4 6.1,3.6 10.6,8.5 13.7,15.1 3.1,6.6 4.8,14.5 4.8,23.6 z"
   class="st0"
   inkscape:connector-curvature="0"
   style="fill:#0f206c" />
	<path
   id="path12"
   d="m 517,117 v 21.7 c 0,0 30.8,0 37,0 0,4.7 0,13.6 0,16.3 -3.2,2.4 -7.5,4.7 -13.2,6.9 -6.4,2.4 -13.1,3.7 -19.7,3.7 -7.7,0 -15.1,-1.6 -21.9,-4.8 -6.7,-3.1 -11.6,-7.8 -15.1,-14.2 -3.5,-6.5 -5.3,-14.8 -5.3,-24.7 0,-8 1.5,-15.5 4.5,-22.4 1.7,-3.8 4.1,-7.4 7.2,-10.6 3,-3.1 7.1,-5.7 12.1,-7.7 5.1,-2 11.2,-3 18.3,-3 5.8,0 11.2,1 15.9,2.8 4.5,1.8 8.1,4.2 10.4,7.1 2.5,3.1 4.6,7.4 6.3,13 l 1.1,3.5 22.4,-5.9 -1,-3.8 c -2.3,-8.5 -5.8,-15.5 -10.3,-20.9 -4.6,-5.5 -11,-9.8 -18.9,-12.8 -7.8,-2.9 -16.5,-4.4 -26.1,-4.4 -13.1,0 -24.9,2.6 -35,7.7 -10.3,5.2 -18.4,13.3 -23.8,24 -5.4,10.5 -8.1,22 -8.1,34.1 0,12.3 2.8,23.6 8.2,33.5 5.5,10.1 13.8,17.9 24.6,23.3 10.6,5.2 22.5,7.9 35.4,7.9 9.6,0 19,-1.6 28.1,-4.9 9,-3.2 17.9,-8.1 26.4,-14.5 l 1.6,-1.2 V 117 H 517"
   class="st0"
   inkscape:connector-curvature="0"
   style="fill:#0f206c" />
	<polyline
   id="polyline14"
   points="608.6,58.8 588,58.8 588,185.4 612.5,185.4 612.5,58.8 608.6,58.8  "
   class="st0"
   style="fill:#0f206c" />
	<path
   id="path16"
   d="m 715.4,135.2 -0.9,3.8 c -2.1,9 -6,15.9 -11.8,20.4 -5.8,4.6 -12.8,6.8 -21.3,6.8 -7,0 -13.5,-1.7 -19.5,-5.1 -5.9,-3.3 -10.1,-8.2 -12.9,-15 -2.9,-7 -4.4,-15.4 -4.4,-25 0,-7.3 1.2,-14.5 3.7,-21.4 2.4,-6.6 6.4,-11.8 12.2,-15.7 5.8,-3.9 13.3,-5.9 22.2,-5.9 7.6,0 13.9,1.7 18.8,5.2 4.8,3.4 8.7,9.1 11.3,16.9 l 1.1,3.3 23.8,-5.3 -1.2,-4 c -3.6,-11.8 -10.1,-21.1 -19.4,-27.6 -9.2,-6.5 -20.7,-9.8 -34,-9.8 -11.7,0 -22.6,2.6 -32.3,7.6 -9.9,5.1 -17.7,12.7 -23,22.5 -5.3,9.7 -8,21.2 -8,34.2 0,11.8 2.4,23.1 7,33.4 4.8,10.6 11.8,18.7 20.9,24.3 9.1,5.6 20.9,8.4 35.1,8.4 13.9,0 25.9,-3.7 35.6,-10.9 9.8,-7.2 16.6,-17.9 20.3,-31.6 l 1.1,-3.9 -24.4,-5.6"
   class="st0"
   inkscape:connector-curvature="0"
   style="fill:#0f206c" />
</g><g
     id="g22">
	<path
   id="path20"
   d="m 754.6,87.6 c -8,0 -13.6,-6 -13.6,-13.8 0,-8.3 6.3,-13.8 13.6,-13.8 7.3,0 13.5,5.5 13.5,13.8 0,8.3 -6.3,13.8 -13.5,13.8 z m 0,-25.2 c -6,0 -10.7,4.7 -10.7,11.4 0,6.3 4.1,11.4 10.7,11.4 5.9,0 10.6,-4.7 10.6,-11.4 -0.1,-6.7 -4.7,-11.4 -10.6,-11.4 z m -2.8,19.3 h -2.5 V 66.4 h 5.8 c 3.7,0 5.6,1.3 5.6,4.4 0,2.8 -1.7,3.9 -4,4.2 l 4.3,6.7 h -2.9 l -4,-6.6 h -2.4 v 6.6 z m 2.8,-8.7 c 1.9,0 3.6,-0.2 3.6,-2.4 0,-1.9 -1.8,-2.1 -3.3,-2.1 h -3 V 73 Z"
   class="st0"
   inkscape:connector-curvature="0"
   style="fill:#0f206c" />
</g></g>
</svg>