<?xml version="1.0" encoding="UTF-8" standalone="no"?>
<svg
   id="Layer_1"
   version="1.1"
   viewBox="0 0 197.30507 20.452168"
   sodipodi:docname="logo-jaeger.svg"
   width="197.30508"
   height="20.452168"
   inkscape:version="1.2.2 (b0a8486541, 2022-12-01)"
   xmlns:inkscape="http://www.inkscape.org/namespaces/inkscape"
   xmlns:sodipodi="http://sodipodi.sourceforge.net/DTD/sodipodi-0.dtd"
   xmlns="http://www.w3.org/2000/svg"
   xmlns:svg="http://www.w3.org/2000/svg">
  <sodipodi:namedview
     id="namedview1214"
     pagecolor="#ffffff"
     bordercolor="#000000"
     borderopacity="0.25"
     inkscape:showpageshadow="2"
     inkscape:pageopacity="0.0"
     inkscape:pagecheckerboard="0"
     inkscape:deskcolor="#d1d1d1"
     showgrid="false"
     inkscape:zoom="6.0392038"
     inkscape:cx="74.513134"
     inkscape:cy="26.659143"
     inkscape:window-width="1908"
     inkscape:window-height="999"
     inkscape:window-x="3840"
     inkscape:window-y="116"
     inkscape:window-maximized="1"
     inkscape:current-layer="Layer_1" />
  <!-- Generator: Adobe Illustrator 29.6.1, SVG Export Plug-In . SVG Version: 2.1.1 Build 9)  -->
  <defs
     id="defs1172">
    <style
       id="style1131">
      .st0 {
        fill: url(#linear-gradient2);
      }

      .st1 {
        fill: url(#linear-gradient1);
      }

      .st2 {
        fill: url(#linear-gradient3);
      }

      .st3 {
        fill: url(#linear-gradient5);
      }

      .st4 {
        fill: url(#linear-gradient4);
      }

      .st5 {
        fill: #7fbd42;
      }

      .st6 {
        fill: url(#radial-gradient);
      }

      .st7 {
        fill: url(#linear-gradient);
      }

      .st8 {
        fill: #266596;
      }
    </style>
    <linearGradient
       id="linear-gradient"
       x1="36.362999"
       y1="-7.4359999"
       x2="39.606998"
       y2="-11.194"
       gradientTransform="matrix(1,0,0,-1,0,25.181)"
       gradientUnits="userSpaceOnUse">
      <stop
         offset="0"
         stop-color="#7fbd42"
         id="stop1133" />
      <stop
         offset="1"
         stop-color="#3ca949"
         id="stop1135" />
    </linearGradient>
    <linearGradient
       id="linear-gradient1"
       x1="19.639999"
       y1="-4.086"
       x2="14.858"
       y2="-13.024"
       gradientTransform="matrix(1,0,0,-1,0,25.181)"
       gradientUnits="userSpaceOnUse">
      <stop
         offset=".177"
         stop-color="#5d8970"
         id="stop1138" />
      <stop
         offset="1"
         stop-color="#93af9f"
         id="stop1140" />
    </linearGradient>
    <linearGradient
       id="linear-gradient2"
       x1="22.763"
       y1="-5.757"
       x2="17.981001"
       y2="-14.694"
       gradientTransform="matrix(1,0,0,-1,0,25.181)"
       gradientUnits="userSpaceOnUse">
      <stop
         offset=".177"
         stop-color="#5d8970"
         id="stop1143" />
      <stop
         offset="1"
         stop-color="#93af9f"
         id="stop1145" />
    </linearGradient>
    <radialGradient
       id="radial-gradient"
       cx="29.448"
       cy="-12.715"
       fx="29.448"
       fy="-12.715"
       r="6.2789998"
       gradientTransform="matrix(1,0,0,-1,0,25.181)"
       gradientUnits="userSpaceOnUse">
      <stop
         offset=".274"
         stop-color="#cbd7cf"
         id="stop1148" />
      <stop
         offset=".456"
         stop-color="#c2d1c7"
         id="stop1150" />
      <stop
         offset=".745"
         stop-color="#abc0b3"
         id="stop1152" />
      <stop
         offset="1"
         stop-color="#93af9f"
         id="stop1154" />
    </radialGradient>
    <linearGradient
       id="linear-gradient3"
       x1="14.841"
       y1="-12.954"
       x2="20.989"
       y2="-20.725"
       gradientTransform="matrix(1,0,0,-1,0,25.181)"
       gradientUnits="userSpaceOnUse">
      <stop
         offset="0"
         stop-color="#1e5286"
         id="stop1157" />
      <stop
         offset="1"
         stop-color="#4a76a8"
         id="stop1159" />
    </linearGradient>
    <linearGradient
       id="linear-gradient4"
       x1="24.826"
       y1="-18.82"
       x2="33.877998"
       y2="-4.7020001"
       gradientTransform="matrix(1,0,0,-1,0,25.181)"
       gradientUnits="userSpaceOnUse">
      <stop
         offset="0"
         stop-color="#1e5286"
         id="stop1162" />
      <stop
         offset="1"
         stop-color="#4a76a8"
         id="stop1164" />
    </linearGradient>
    <linearGradient
       id="linear-gradient5"
       x1="42.131001"
       y1="-12.296"
       x2="37.605"
       y2="-21.433001"
       gradientTransform="matrix(1,0,0,-1,0,25.181)"
       gradientUnits="userSpaceOnUse">
      <stop
         offset=".372"
         stop-color="#bfd430"
         id="stop1167" />
      <stop
         offset="1"
         stop-color="#7fbd42"
         id="stop1169" />
    </linearGradient>
  </defs>
  <g
     id="Layer_11"
     transform="translate(-14.109906,-28.714)">
    <path
       class="st8"
       d="m 54.124,44.001 1.211,-0.308 c 0.498,1.734 1.93,2.753 3.635,2.753 2.48,0 3.496,-1.505 3.496,-4.586 v -8.745 h 1.314 l 0.006,8.705 c 0.003,3.947 -1.54,5.84 -4.753,5.827 -2.417,-0.011 -4.299,-1.336 -4.909,-3.645 v 0 z"
       id="path1174" />
    <path
       class="st8"
       d="m 86.493,32.59 7.916,14.942 h -1.404 l -1.877,-3.609 h -9.33 l -1.924,3.611 h -1.439 l 8.058,-14.943 v 0 z m 4.052,10.232 -4.066,-7.754 -4.103,7.754 z"
       id="path1176" />
    <path
       class="st8"
       d="m 164.684,33.115 h 11.112 v 1.177 h -9.823 v 4.84 l 7.324,0.005 v 1.159 h -7.324 v 6.017 h 9.829 v 1.193 h -11.118 v -14.39 0 z"
       id="path1178" />
    <path
       class="st8"
       d="m 199.995,47.505 -8.367,-6.618 v 6.618 h -1.295 v -14.39 h 6.595 c 2.952,0 5.061,1.383 5.061,4.087 0,2.761 -2.015,4.077 -4.973,4.077 h -3.015 l 8.031,6.226 c 0,0 -2.037,0 -2.037,0 z m -8.367,-7.413 h 5.39 c 2.122,0 3.639,-0.883 3.639,-2.89 0,-1.967 -1.518,-2.901 -3.639,-2.901 h -5.39 z"
       id="path1180" />
    <path
       class="st8"
       d="m 150.132,40.171 h -8.192 v 1.151 h 6.802 c -0.291,3.264 -3.031,5.822 -6.371,5.822 -3.533,0 -6.398,-2.864 -6.398,-6.398 0,-3.388 2.634,-6.16 5.966,-6.382 v -1.388 c -4.097,0.224 -7.351,3.617 -7.351,7.77 0,4.298 3.484,7.782 7.782,7.782 4.298,0 7.782,-3.484 7.782,-7.782 0,-0.194 -0.007,-0.385 -0.021,-0.575 v 0 z"
       id="path1182" />
    <path
       class="st8"
       d="m 108.94,33.115 h 11.112 v 1.177 h -9.823 v 4.84 l 7.324,0.005 v 1.159 h -7.324 v 6.017 h 9.829 v 1.193 H 108.94 v -14.39 0 z"
       id="path1184" />
    <g
       id="g1206">
      <polygon
         class="st5"
         points=""
         id="polygon1186" />
      <path
         class="st7"
         d="m 41.347,34.776 c 0,0 0.005,0 0.007,0.002 L 40.995,34.216 39.15,31.359 c -0.255,-0.398 -0.492,-0.736 -0.715,-1.023 -0.738,-0.089 -2.244,0.366 -2.819,1.08 -0.266,0.33 -0.584,0.807 -0.851,1.227 0.31,0.489 0.549,0.897 0.549,0.897 0.015,0.018 0.029,0.037 0.042,0.057 l 0.395,0.6 c 0,0 2.197,3.353 2.925,4.449 l 0.109,0.166 V 38.81 c 0.506,0.757 0.658,1.444 0.636,2.029 l 0.056,-0.082 0.397,-0.578 c 0.014,-0.021 0.027,-0.042 0.039,-0.063 0,0 1.041,-1.355 1.505,-2.193 0.464,-0.838 0.309,-2.478 -0.07,-3.149 v 0.002 0 z"
         id="path1188"
         style="fill:url(#linear-gradient)" />
      <g
         id="g1194">
        <path
           class="st1"
           d="m 16.391,35.34 c -0.011,0.019 -0.022,0.038 -0.033,0.056 l 0.033,-0.05 z"
           id="path1190"
           style="fill:url(#linear-gradient1)" />
        <path
           class="st0"
           d="m 26.867,30.129 c -0.051,-0.06 -0.103,-0.118 -0.157,-0.175 -0.745,-0.781 -1.784,-1.236 -2.885,-1.24 H 23.07 c -1.531,0 -2.406,0 -4.111,2.655 l -1.845,2.857 -0.359,0.562 c 0,0 0.005,0 0.007,-0.002 -0.379,0.671 -0.534,2.31 -0.07,3.149 0.464,0.838 1.505,2.193 1.505,2.193 0.012,0.021 0.024,0.042 0.039,0.063 l 0.397,0.578 0.056,0.082 c -0.021,-0.585 0.13,-1.272 0.636,-2.029 v 0.002 l 0.109,-0.166 c 0.728,-1.096 2.925,-4.449 2.925,-4.449 l 0.395,-0.6 c 0.013,-0.02 0.027,-0.039 0.042,-0.057 0,0 0.829,-1.418 1.407,-2.135 0.578,-0.717 2.094,-1.173 2.829,-1.079 -0.053,-0.071 -0.108,-0.141 -0.165,-0.208 v 0 z"
           id="path1192"
           style="fill:url(#linear-gradient2)" />
      </g>
      <path
         class="st6"
         d="m 35.213,46.964 0.495,-0.713 0.874,-1.26 v 0 C 36.34,44.603 36.169,44.309 36.169,44.309 36.154,44.291 36.14,44.272 36.127,44.252 L 34.21,41.336 32.576,38.85 27.738,31.359 c -0.255,-0.398 -0.492,-0.736 -0.715,-1.023 -0.738,-0.089 -2.244,0.366 -2.819,1.08 -0.266,0.33 -0.584,0.807 -0.851,1.227 0.31,0.489 0.549,0.897 0.549,0.897 0.015,0.018 0.029,0.037 0.042,0.057 l 1.917,2.916 1.634,2.486 4.838,7.491 c 0.262,0.409 0.505,0.754 0.733,1.047 0.749,0.112 1.76,-0.015 2.148,-0.574 h -10e-4 z"
         id="path1196"
         style="fill:url(#radial-gradient)" />
      <path
         class="st2"
         d="m 17.706,47.534 c 0.735,0.094 2.251,-0.362 2.829,-1.079 0.578,-0.717 1.406,-2.134 1.407,-2.135 -0.155,0.193 -0.581,0.388 -0.865,0 -0.284,-0.388 -0.783,-1.138 -0.783,-1.138 l -1.659,-2.413 -0.397,-0.578 c -0.014,-0.021 -0.027,-0.042 -0.039,-0.063 0,0 -1.041,-1.355 -1.505,-2.193 -0.464,-0.838 -0.309,-2.478 0.07,-3.149 -0.005,0 -0.009,0.003 -0.014,0.004 l -1.111,1.72 -0.638,0.988 c -0.099,0.16 -0.185,0.309 -0.261,0.45 -0.411,0.766 -0.508,1.291 -0.575,1.893 -0.171,1.24 0.073,2.391 0.498,3.233 0.092,0.182 0.192,0.35 0.299,0.501 l 1.797,2.546 0.278,0.394 0.523,0.81 c 0.046,0.072 0.095,0.142 0.146,0.21 v 0 z"
         id="path1198"
         style="fill:url(#linear-gradient3)" />
      <path
         class="st4"
         d="m 38.279,30.129 c -0.051,-0.06 -0.103,-0.118 -0.157,-0.175 -0.745,-0.781 -1.784,-1.236 -2.885,-1.24 h -0.755 c -1.531,0 -2.406,0 -4.111,2.655 l -4.838,7.491 -1.634,2.486 -1.917,2.916 c -0.013,0.02 -0.027,0.039 -0.042,0.057 0,0 -0.829,1.418 -1.407,2.135 -0.578,0.717 -2.094,1.173 -2.829,1.079 0.053,0.071 0.108,0.141 0.165,0.208 0.051,0.06 0.103,0.118 0.157,0.175 0.745,0.781 1.784,1.236 2.885,1.24 h 0.755 c 1.531,0 2.406,0 4.111,-2.655 l 4.838,-7.491 1.634,-2.486 1.917,-2.916 c 0.013,-0.02 0.027,-0.039 0.042,-0.057 0,0 0.829,-1.418 1.407,-2.135 0.578,-0.717 2.094,-1.173 2.829,-1.079 -0.053,-0.071 -0.108,-0.141 -0.165,-0.208 z"
         id="path1200"
         style="fill:url(#linear-gradient4)" />
      <path
         class="st3"
         d="M 43.945,39.831 C 43.878,39.23 43.781,38.704 43.37,37.938 43.294,37.797 43.208,37.647 43.109,37.488 L 42.471,36.5 41.36,34.78 c 0,0 -0.009,-0.003 -0.014,-0.004 0.379,0.671 0.534,2.31 0.07,3.149 -0.464,0.838 -1.505,2.193 -1.505,2.193 -0.012,0.021 -0.024,0.042 -0.039,0.063 l -0.397,0.578 -0.056,0.082 c 0,0 -2.851,4.13 -2.838,4.15 v 0 l -0.874,1.26 -0.495,0.713 c -0.388,0.559 -1.399,0.686 -2.148,0.574 1.461,1.924 2.6,1.609 4.123,1.609 v 0 c 1.105,0 2.149,-0.456 2.898,-1.24 0.172,-0.181 0.329,-0.379 0.467,-0.593 l 0.523,-0.81 2.075,-2.939 c 0.155,-0.219 0.295,-0.473 0.414,-0.756 0.35,-0.812 0.534,-1.859 0.379,-2.978 0,0 0.002,0 0.002,0 z"
         id="path1202"
         style="fill:url(#linear-gradient5)" />
      <polygon
         class="st5"
         points=""
         id="polygon1204" />
    </g>
  </g>
  <path
     class="st8"
     d="m 190.54509,3.704 h -1.131 V 3.131 h 2.92 v 0.573 h -1.131 v 3.118 h -0.657 V 3.704 Z"
     id="path1209" />
  <path
     class="st8"
     d="m 193.32209,3.131 h 1.027 l 0.959,2.622 h 0.016 l 0.949,-2.622 h 1.032 v 3.691 h -0.652 V 3.855 h -0.01 l -1.121,2.967 h -0.459 l -1.105,-2.967 h -0.01 v 2.967 h -0.625 V 3.131 Z"
     id="path1211" />
</svg>
