<?xml version="1.0" encoding="UTF-8"?>
<svg id="Layer_1" data-name="Layer 1" xmlns="http://www.w3.org/2000/svg" viewBox="0 0 511.12 275.52">
  <defs>
    <style>
      .cls-1 {
        fill: none;
      }

      .cls-2 {
        fill: #00a0dc;
      }

      .cls-3 {
        clip-path: url(#clippath-1);
      }

      .cls-4 {
        fill: #21409a;
      }

      .cls-5 {
        clip-path: url(#clippath);
      }
    </style>
    <clipPath id="clippath">
      <rect class="cls-1" x="1.06" y="1" width="506.41" height="274.07"/>
    </clipPath>
    <clipPath id="clippath-1">
      <rect class="cls-1" x="1.06" y="1" width="506.41" height="274.07"/>
    </clipPath>
  </defs>
  <g class="cls-5">
    <path class="cls-2" d="M457.85,268.97v-30.43h-6.7v36.11h23.15v-5.68h-16.44ZM405.79,261.91l6.14-15.52,6.08,15.52h-12.22ZM422.42,274.65h7.2l-14.58-36.23h-6.08l-14.64,36.23h7.14l2.79-7.18h15.45l2.73,7.18ZM359.31,238.12c-10.55.06-19.67,7.31-19.67,18.17s8.81,18.78,19.67,18.78c6.27,0,11.73-2.29,15.45-6.46l-4.9-4.17c-2.55,3.2-6.14,4.83-10.55,4.83-7.2,0-12.72-5.61-12.72-12.98s5.83-12.32,12.72-12.38c4.34,0,7.76,1.75,10.18,4.71l4.9-3.86c-3.66-4.17-8.75-6.64-15.08-6.64M309.79,274.65h6.7v-36.11h-6.7v36.11ZM266.91,268.97h-4.96v-24.76h5.03c7.82,0,12.72,4.53,12.72,12.14s-4.96,12.62-12.78,12.62M266.97,238.54h-11.73v36.11h11.67c11.48,0,19.73-7.12,19.73-18.29s-8.19-17.81-19.67-17.81M231.66,244.22v-5.68h-25.01v36.11h25.01v-5.68h-18.31v-10.44h17.5v-5.68h-17.5v-8.63h18.31ZM177.37,238.54l-12.97,14.55-13.15-14.55h-4.28v36.11h6.58v-25.18l8.81,10.02h4.03l8.75-10.02v25.18h6.7v-36.11h-4.47ZM103.77,269.28c-7.2,0-13.03-5.31-13.03-12.62s5.83-12.74,13.03-12.74,13.09,5.37,13.09,12.74-5.83,12.62-13.09,12.62M103.77,238.12c-10.86,0-19.98,7.67-19.98,18.54s9.12,18.41,19.98,18.41,20.04-7.61,20.04-18.41-9.12-18.54-20.04-18.54M53.94,274.65h6.7v-36.11h-6.7v36.11ZM17.64,269.1H7.83v-10.63h9.99c3.97,0,6.14,1.57,6.14,5.55s-2.61,5.07-6.33,5.07M22.85,248.63c0,3.08-2.54,4.29-5.89,4.29H7.83v-8.82h8.94c4.41,0,6.08,1.09,6.08,4.53M25.95,255.39c2.05-1.51,3.72-4.23,3.72-6.94-.06-7.37-5.4-9.9-12.66-9.9H1.26v36.11h16.69c7.07,0,12.85-2.84,12.85-10.51,0-3.98-1.49-6.76-4.84-8.76"/>
    <path class="cls-4" d="M362.72,85.26l-37.62,97.44-36.92-97.44h-27.81l56.32,139.74h16.36l56.78-139.74h-27.11ZM202.42,204.2c-27.11,0-49.07-20.56-49.07-48.84s21.96-49.3,49.07-49.3,49.31,20.8,49.31,49.3-21.96,48.84-49.31,48.84M202.42,83.62c-40.89,0-75.24,29.68-75.24,71.74s34.35,71.27,75.24,71.27,75.48-29.44,75.48-71.27-34.35-71.74-75.48-71.74M122.14,85.26h-23.83v98.84L23.29,85.26H1.09v139.74h24.53v-100.71l76.41,100.71h20.1V85.26Z"/>
  </g>
  <polygon class="cls-4" points="447.28 225.08 409.65 127.64 372.73 225.08 344.93 225.08 400.65 85.11 418.29 85.11 474.38 225.08 447.28 225.08"/>
  <g class="cls-3">
    <path class="cls-2" d="M1.06,85.22C37.88,43.84,129.26,10.18,238.07,2.57c144.59-10.11,265.16,29.61,269.29,88.72,2.74,39.15-46.32,76.98-121.77,101,50.73-22.98,81.71-53.73,79.49-85.49-4.07-58.25-118.15-97.72-254.8-88.16C119.72,24.98,42.01,51.26,1.06,85.22"/>
    <path class="cls-2" d="M480.73,242.12c.72,0,1.08.3,1.08.9s-.36.93-1.08.93h-1.3v-1.83h1.3ZM478.25,247.17h1.18v-2.35h1.05l1.36,2.35h1.36l-1.49-2.45c.87-.27,1.3-.86,1.3-1.77,0-.56-.19-1-.57-1.32-.38-.32-.87-.48-1.47-.48h-2.73v6.01ZM475.5,244.17c0-1.38.47-2.55,1.41-3.5.94-.95,2.11-1.43,3.52-1.43s2.58.48,3.52,1.43,1.41,2.12,1.41,3.5-.47,2.55-1.41,3.5-2.11,1.43-3.52,1.43-2.58-.48-3.52-1.43c-.94-.95-1.41-2.12-1.41-3.5M474.38,244.17c0,1.67.58,3.09,1.75,4.24,1.17,1.16,2.6,1.73,4.29,1.73s3.12-.58,4.29-1.73c1.17-1.16,1.75-2.57,1.75-4.24s-.58-3.09-1.75-4.24c-1.17-1.16-2.6-1.73-4.29-1.73s-3.12.58-4.29,1.73c-1.17,1.16-1.75,2.57-1.75,4.24"/>
  </g>
</svg>
